<svg xmlns="http://www.w3.org/2000/svg" xmlns:xlink="http://www.w3.org/1999/xlink" width="201" height="39" viewBox="0 0 201 39">
  <defs>
    <clipPath id="clip-path">
      <rect id="Rectangle_1" data-name="Rectangle 1" width="201" height="39"/>
    </clipPath>
  </defs>
  <g id="Custom_Size_1" data-name="Custom Size – 1" clip-path="url(#clip-path)">
    <g id="logo" clip-path="url(#clip-path)">
      <g id="Group_11245" data-name="Group 11245" transform="translate(-240 -20.207)">
        <path id="Union_2" data-name="Union 2" d="M39.762,17.436,37.956,10.07l-2.925,1.779-1.228,2.6a4.593,4.593,0,0,0-.65,2.989H22.788a8.265,8.265,0,0,0,2.095-2.989L30.155,3.06c.758-1.672.8-2.313.65-2.989h10.4a8.27,8.27,0,0,0-2.13,2.989l-2.239,4.8L45.4,2.6c1.445-.89,1.878-1.317,2.131-1.886a4.46,4.46,0,0,0,.217-.64H55.9a17.068,17.068,0,0,0-3.86,1.7L46.118,5.2l2.853,8.682a14.287,14.287,0,0,0,1.192,2.74,9.876,9.876,0,0,0,1.3-2.171L56.735,3.06c.758-1.672.795-2.313.65-2.989h20.26l-.831,3.345a13.436,13.436,0,0,0-3.864-.463H65.692L63.778,7.01H70.17a18.46,18.46,0,0,0,4.23-.463l-1.77,3.772a13.333,13.333,0,0,0-3.83-.462l-6.284.036-2.167,4.661h7.764a17.937,17.937,0,0,0,4.225-.463l-2.347,3.345ZM0,17.436l.9-3.523a6.39,6.39,0,0,0,3.178.641h8.7c1.372,0,1.733-.107,2.022-.747l.542-1.174c.289-.6.072-.747-1.336-.747H6.753c-3.575,0-4.55-.89-3.178-3.772l1.77-3.879A7.12,7.12,0,0,1,12.207.107h16.54l-.831,3.452a8.007,8.007,0,0,0-3.359-.569H16.251c-1.372,0-1.77.107-2.059.747l-.469.961c-.289.641,0,.747,1.372.747h6.32c3.792,0,5.381.961,4.225,3.487L23.655,13.2c-1.264,2.7-3.25,4.234-7.548,4.234ZM171,17.4l.867-3.523a6.787,6.787,0,0,0,3.214.64h8.6c1.409,0,1.77-.107,2.059-.747l.542-1.174c.289-.641.036-.783-1.336-.783h-7.259c-3.539,0-4.55-.89-3.178-3.772l1.77-3.879A7.119,7.119,0,0,1,183.135.036H200l-1.156,3.452a7.89,7.89,0,0,0-3.359-.569h-8.27c-1.408,0-1.806.107-2.094.747l-.433,1c-.289.641-.036.747,1.372.747h6.32c3.792,0,5.381.961,4.225,3.487l-1.986,4.234c-1.264,2.74-3.25,4.27-7.548,4.27Zm-49.946,0a8.273,8.273,0,0,0,2.131-2.989l5.273-11.387a4.653,4.653,0,0,0,.65-2.989h20.224L148.5,3.38a13.436,13.436,0,0,0-3.864-.463h-7.259L135.5,6.974h6.392a18.2,18.2,0,0,0,4.225-.463l-1.77,3.807a13.027,13.027,0,0,0-3.792-.463H134.2l-2.167,4.661h7.728a17.433,17.433,0,0,0,4.225-.463L141.64,17.4Zm39.148-.036L159.48,9.82h-2.745l-2.1,4.555a4.593,4.593,0,0,0-.65,2.989h-10.4a7.863,7.863,0,0,0,2.131-2.989l5.273-11.387c.758-1.672.795-2.313.433-2.989H170.64c4.117,0,5.634.925,4.3,3.843l-1.481,3.2c-1.192,2.526-2.925,2.669-4.875,2.775l.9,4.875a6.572,6.572,0,0,0,.686,2.669Zm-2.167-10.39h5.056c1.156,0,1.553-.107,1.95-.961l.975-2.135c.4-.854.108-1-1.047-.961h-5.02Zm-47.96,10.39a8.273,8.273,0,0,0,2.131-2.989L114.3,9.821h-6.645l-2.131,4.555a4.492,4.492,0,0,0-.686,2.989h-10.4a8.27,8.27,0,0,0,2.131-2.989l5.273-11.387c.758-1.637.795-2.277.65-2.953h10.4a8.27,8.27,0,0,0-2.131,2.989l-1.842,3.95h6.645l1.842-3.985a4.531,4.531,0,0,0,.65-2.953h10.365a8.728,8.728,0,0,0-2.1,2.989l-5.309,11.387c-.758,1.637-.758,2.277-.578,2.953ZM78.15,17.328c-3.792,0-5.273-1.352-3.539-5.088l3.323-7.152C79.668,1.352,82.412,0,86.241,0h14.048l-.036.107h.036L99.242,4.092a10.348,10.348,0,0,0-3.106-.534H89.6a1.726,1.726,0,0,0-1.661,1s-3.467,7.295-3.792,8.149c-.361.854-.072,1.1.831,1.1h4.189a31.882,31.882,0,0,0,6.356-.64L92.562,17.33Z" transform="translate(241 23.207)" fill="#0063ba"/>
      </g>
    </g>
    <g id="Слой_x0020_1" transform="translate(109.088 24.7)">
      <path id="Path_1" data-name="Path 1" d="M8.844,6.6,8.681,2.337,5.765,6.6ZM7.229,1.419A3.157,3.157,0,0,0,7.595.689a.763.763,0,0,0,.03-.082A.445.445,0,0,0,7.326,0H13.01l.412,10.869a1.983,1.983,0,0,0,.239.791H8.406A1.85,1.85,0,0,0,8.783,11c.006-.019.011-.038.016-.056a5.072,5.072,0,0,0,.154-1.663L8.93,8.582H4.413L3.06,10.563a2.946,2.946,0,0,0-.222.51.805.805,0,0,0-.029.078.455.455,0,0,0,.127.511H-.01A7.984,7.984,0,0,0,1.579,9.9L7,1.756l-.011.009a.735.735,0,0,1,.072-.1l.163-.25Zm16.9,1.446.016-.052q.184-.6.019-.721a1.246,1.246,0,0,0-.523-.108l-.083,0H21.02L19.955,5.5h2.531l.077,0a1.7,1.7,0,0,0,.579-.108q.234-.106.421-.721l.016-.052.546-1.759ZM21.051,7.482h-1.7l-.883,2.868c-.016.046-.033.092-.047.139a1.565,1.565,0,0,0,.059,1.171l-4.84.01a2.653,2.653,0,0,0,.784-1.182c.014-.046.026-.092.037-.138l2.753-9.024q.028-.071.049-.142A1.547,1.547,0,0,0,17.2.006h9.273c.047,0,.095,0,.141,0a1.911,1.911,0,0,1,1.626.773,3.068,3.068,0,0,1,.078,2.2c-.034.111-.073.223-.117.334l-.268.879c-.024.11-.053.223-.087.334a5.072,5.072,0,0,1-1.416,2.19,3.5,3.5,0,0,1-.929.536L26.059,11a1.813,1.813,0,0,0,.219.66H21.442L21.05,7.482Zm14.24,4.169-2.938.009-.178-9.068L29.81,10.345c-.017.047-.033.095-.048.142a1.551,1.551,0,0,0,.064,1.174H27.095a2.55,2.55,0,0,0,.779-1.156c.014-.045.026-.091.036-.136l.01-.035,2.756-9.007c.012-.034.024-.069.035-.1A1.625,1.625,0,0,0,30.649.006h5.678l.156,6.685L40.954.006h5.468a2.634,2.634,0,0,0-.784,1.178c-.014.047-.027.094-.038.142l-2.751,9.015c-.018.047-.034.095-.049.142a1.316,1.316,0,0,0,.122,1.142v0a.031.031,0,0,0,0,.024l.006.009-4.9-.009a.049.049,0,0,0,.017-.024v0a2.461,2.461,0,0,0,.772-1.132c.015-.051.029-.1.039-.152l2.4-7.881L35.3,11.66l-.006-.009ZM50.264,4.624h3.365a4.453,4.453,0,0,0,1.816-.44l-.872,2.858A2.865,2.865,0,0,0,53.025,6.6H49.66L48.721,9.68h4.291a5.132,5.132,0,0,0,1.454-.221l-1.092,2.2-9.683.009a2.654,2.654,0,0,0,.787-1.185c.014-.045.026-.09.036-.135l2.753-9.024c.018-.047.034-.094.048-.142A1.551,1.551,0,0,0,47.25.006h9.475l-.04,2.2a3.9,3.9,0,0,0-1.32-.22h-4.3l-.8,2.638Zm9.462-2.2L57.319,10.34l-.03.1c-.03.072-.056.144-.078.216a1.882,1.882,0,0,0-.08.743l.121.264H54.594a2.67,2.67,0,0,0,.8-1.2c.012-.04.023-.081.033-.121L58.17,1.325c.018-.047.034-.094.048-.141A1.547,1.547,0,0,0,58.151.005h5.887L65.708,9.7l2.554-8.373c.018-.047.034-.094.048-.141A1.547,1.547,0,0,0,68.244.007h2.735a2.628,2.628,0,0,0-.785,1.178q-.022.071-.038.142L67,11.663H61.323l-1.6-9.238Zm8.528,9.245a2.656,2.656,0,0,0,.784-1.183c.014-.046.026-.092.037-.137l2.753-9.024c.018-.047.034-.094.048-.142A1.548,1.548,0,0,0,71.81.006h4.837a2.617,2.617,0,0,0-.774,1.166c-.015.048-.027.1-.039.144L73.079,10.35c-.017.045-.033.091-.047.136a1.563,1.563,0,0,0,.061,1.174l-4.84.009ZM82.594,6.6l-.163-4.266L79.515,6.6h3.079ZM80.979,1.419a3.179,3.179,0,0,0,.366-.729.736.736,0,0,0,.03-.082.445.445,0,0,0-.3-.608H86.76l.413,10.862a1.978,1.978,0,0,0,.238.791H82.156a1.862,1.862,0,0,0,.376-.665c.006-.019.011-.038.016-.056A5.069,5.069,0,0,0,82.7,9.27l-.023-.695H78.165l-1.353,1.981a2.883,2.883,0,0,0-.223.51.734.734,0,0,0-.03.082.454.454,0,0,0,.128.511H73.741A8.019,8.019,0,0,0,75.327,9.9l5.429-8.144-.011.009a.707.707,0,0,1,.072-.1l.162-.25Z" transform="translate(0)" fill="#0063ba" fill-rule="evenodd"/>
    </g>
  </g>
</svg>
