<svg xmlns="http://www.w3.org/2000/svg" width="165.335" height="29.713" viewBox="0 0 165.335 29.713">
  <g id="Group_10529" data-name="Group 10529" transform="translate(-240 -93.396)">
    <g id="Group_11228" data-name="Group 11228">
      <path id="Path_13118" data-name="Path 13118" d="M18.763-21.453l-5.18,1.313a2.221,2.221,0,0,0-1.107-1.417,3.8,3.8,0,0,0-1.948-.516q-1.992,0-1.992,1.328a1.063,1.063,0,0,0,.28.738,4.61,4.61,0,0,0,1.578.769L13.6-18.1a8,8,0,0,1,2.332,1.307A5.285,5.285,0,0,1,17.478-14.9a5.164,5.164,0,0,1,.473,2.19,6.274,6.274,0,0,1-2.4,5.043,9.7,9.7,0,0,1-6.4,1.991A12.286,12.286,0,0,1,3.187-7.065,7.464,7.464,0,0,1-.362-11.3l5.814-1.136Q6.2-10.3,9.171-10.3a2.845,2.845,0,0,0,1.793-.45,1.306,1.306,0,0,0,.553-1.026,1.041,1.041,0,0,0-.214-.649,1.391,1.391,0,0,0-.457-.406q-.243-.125-2.293-.881a34.74,34.74,0,0,1-3.888-1.62A4.976,4.976,0,0,1,2.8-17.106a5.079,5.079,0,0,1-.746-2.773,6.165,6.165,0,0,1,2.029-4.667q2.029-1.91,6.205-1.91a10.547,10.547,0,0,1,5.46,1.343A6.446,6.446,0,0,1,18.763-21.453ZM34.921-18.5,38.775-5.988H32.831l-2.278-8.318L27.5-10.9l-.82,4.911h-5.61l3.364-20.143h5.61L28.5-16.877a8.8,8.8,0,0,1,1.454-2.276q.967-1.127,3.127-3.742l2.87-3.235H41.7ZM58.05-10.622l-.782,4.634H42.422l3.364-20.143H60.263l-.738,4.412H50.884l-.523,3.158h7.26l-.738,4.368H49.638l-.592,3.571ZM74.373-13.78l5.4.694A11.448,11.448,0,0,1,76.535-7.67a8.226,8.226,0,0,1-5.792,2.11,7.576,7.576,0,0,1-6.028-2.575,9.731,9.731,0,0,1-2.236-6.618,13.186,13.186,0,0,1,2.759-8.256A9.038,9.038,0,0,1,72.823-26.6a7.737,7.737,0,0,1,5.689,2.154,7.8,7.8,0,0,1,2.221,5.7l-5.681.413a5.725,5.725,0,0,0-.576-2.774,1.974,1.974,0,0,0-1.845-.915q-2.243,0-3.062,3.32a23.289,23.289,0,0,0-.819,5.224q0,3.1,2.42,3.1a2.511,2.511,0,0,0,1.933-.8A6.622,6.622,0,0,0,74.373-13.78Zm20.9-.31H90.048L88.7-5.988h-5.85L86.21-26.131h5.849l-1.237,7.408h5.226l1.237-7.408h5.85L99.771-5.988h-5.85Zm25.616,3.468-.782,4.634H105.263l3.364-20.143H123.1l-.738,4.412h-8.641l-.523,3.158h7.26l-.738,4.368h-7.246l-.592,3.571Zm18.643-3.808,2.181,8.441h-5.96l-1.773-7.659H131.6l-1.286,7.659h-5.745l3.364-20.143h8.795q3.586,0,5.312,1.571a5.489,5.489,0,0,1,1.727,4.272A5.789,5.789,0,0,1,139.534-14.43ZM132.3-17.838h2.265q3.266,0,3.266-2.213,0-1.859-2.74-1.859h-2.107Zm32.671-3.615-5.18,1.313a2.221,2.221,0,0,0-1.107-1.417,3.8,3.8,0,0,0-1.948-.516q-1.992,0-1.992,1.328a1.063,1.063,0,0,0,.28.738,4.611,4.611,0,0,0,1.578.769l3.2,1.142a8,8,0,0,1,2.332,1.307,5.285,5.285,0,0,1,1.551,1.887,5.164,5.164,0,0,1,.473,2.19,6.274,6.274,0,0,1-2.4,5.043,9.7,9.7,0,0,1-6.4,1.991A12.286,12.286,0,0,1,149.4-7.065a7.464,7.464,0,0,1-3.549-4.235l5.814-1.136q.753,2.14,3.719,2.14a2.846,2.846,0,0,0,1.793-.45,1.306,1.306,0,0,0,.553-1.026,1.041,1.041,0,0,0-.214-.649,1.391,1.391,0,0,0-.457-.406q-.243-.125-2.293-.881a34.736,34.736,0,0,1-3.888-1.62,4.976,4.976,0,0,1-1.861-1.777,5.079,5.079,0,0,1-.746-2.773,6.165,6.165,0,0,1,2.029-4.667q2.029-1.91,6.205-1.91a10.547,10.547,0,0,1,5.46,1.343A6.446,6.446,0,0,1,164.973-21.453Z" transform="translate(240.362 120)" fill="#fff"/>
      <path id="Path_13117" data-name="Path 13117" d="M3.3-20.016H1.288l-.7,1.536H-1.276L2.2-25.994H4.559L5.726-18.48H3.509Zm-.134-1.552-.3-2.174-.99,2.174Zm9.543-.061.813,3.149H11.3l-.661-2.857H9.748l-.48,2.857H7.125L8.38-25.994h3.281a2.87,2.87,0,0,1,1.982.586,2.048,2.048,0,0,1,.644,1.594A2.159,2.159,0,0,1,12.708-21.629ZM10.01-22.9h.845q1.218,0,1.218-.826,0-.694-1.022-.694h-.786ZM24.88-25.994,23.625-18.48H21.509l.672-4q.1-.617.27-1.288.132-.545.182-.831-.066.171-.193.517-.27.721-.5,1.233L20-18.48H18.645l-.516-4.371q-.071-.578-.1-1.233-.022-.391-.044-.605-.154,1.558-.341,2.686l-.588,3.523h-1.7l1.252-7.514h3.023l.4,3.325q.05.407.088.578a4.717,4.717,0,0,1,.226-.578l1.489-3.325ZM31.5-20.208l-.292,1.728H25.672l1.255-7.514h5.4l-.275,1.646H28.828l-.2,1.178h2.708l-.275,1.629h-2.7l-.221,1.332Zm9-5.785L39.247-18.48h-1.67l-1.441-2.885a9.048,9.048,0,0,1-.744-1.872q.011.165.011.259a5.311,5.311,0,0,1-.083.815L34.7-18.48H32.873l1.255-7.514h2.024l.825,1.74a21.341,21.341,0,0,1,1.117,2.67q-.017-.226-.017-.336a9.264,9.264,0,0,1,.149-1.222l.478-2.851Zm4.186,0L43.433-18.48H41.3l1.255-7.514ZM49.5-20.016H47.487l-.7,1.536H44.924L48.4-25.994h2.357l1.167,7.514H49.708Zm-.134-1.552-.3-2.174-.99,2.174Z" transform="translate(349.848 141.589)" fill="#fff"/>
    </g>
  </g>
</svg>
