<svg xmlns="http://www.w3.org/2000/svg" width="201.099" height="41.73" viewBox="0 0 201.099 41.73">
  <g id="Group_10211" data-name="Group 10211" transform="translate(-240 -93.397)">
    <path id="Path_13118" data-name="Path 13118" d="M22.9-20.339l-6.3,1.6a2.7,2.7,0,0,0-1.346-1.723,4.617,4.617,0,0,0-2.369-.628q-2.423,0-2.423,1.615a1.292,1.292,0,0,0,.341.9,5.607,5.607,0,0,0,1.92.936l3.892,1.388a9.724,9.724,0,0,1,2.836,1.59,6.428,6.428,0,0,1,1.887,2.3,6.281,6.281,0,0,1,.575,2.663A7.632,7.632,0,0,1,19-3.573a11.8,11.8,0,0,1-7.781,2.421,14.944,14.944,0,0,1-7.26-1.687A9.079,9.079,0,0,1-.362-7.99L6.71-9.372q.915,2.6,4.523,2.6a3.461,3.461,0,0,0,2.181-.547,1.588,1.588,0,0,0,.673-1.247,1.266,1.266,0,0,0-.26-.79,1.692,1.692,0,0,0-.556-.494q-.3-.153-2.79-1.072a42.255,42.255,0,0,1-4.729-1.97,6.052,6.052,0,0,1-2.263-2.161,6.177,6.177,0,0,1-.907-3.372A7.5,7.5,0,0,1,5.05-24.1q2.468-2.323,7.547-2.323a12.829,12.829,0,0,1,6.641,1.633A7.841,7.841,0,0,1,22.9-20.339Zm19.654,3.6L47.241-1.529h-7.23L37.24-11.647,33.524-7.5l-1,5.974H25.7l4.092-24.5h6.823l-1.88,11.255a10.705,10.705,0,0,1,1.768-2.769q1.176-1.371,3.8-4.551L43.8-26.029h6.994ZM70.685-7.165l-.951,5.636H51.677l4.092-24.5H73.377l-.9,5.367H61.97l-.636,3.841h8.831l-.9,5.313H60.453l-.72,4.344Zm19.854-3.841,6.569.844a13.925,13.925,0,0,1-3.94,6.587,10.006,10.006,0,0,1-7.045,2.567A9.215,9.215,0,0,1,78.792-4.14a11.836,11.836,0,0,1-2.719-8.05,16.038,16.038,0,0,1,3.356-10.042,10.993,10.993,0,0,1,9.226-4.37,9.41,9.41,0,0,1,6.919,2.62,9.491,9.491,0,0,1,2.7,6.928l-6.91.5a6.963,6.963,0,0,0-.7-3.374,2.4,2.4,0,0,0-2.244-1.113q-2.728,0-3.724,4.038a28.327,28.327,0,0,0-1,6.354q0,3.769,2.944,3.769A3.055,3.055,0,0,0,89-7.847,8.055,8.055,0,0,0,90.539-11.006Zm25.423-.377h-6.357l-1.646,9.854h-7.115l4.092-24.5h7.114l-1.5,9.01H116.9l1.5-9.01h7.115l-4.092,24.5h-7.115Zm31.157,4.218-.951,5.636H128.111l4.092-24.5h17.608l-.9,5.367H138.4l-.636,3.841H146.6l-.9,5.313h-8.814l-.72,4.344ZM169.795-11.8l2.652,10.267H165.2l-2.156-9.315h-2.9l-1.565,9.315h-6.988l4.092-24.5h10.7q4.362,0,6.461,1.911a6.677,6.677,0,0,1,2.1,5.2Q174.942-13.663,169.795-11.8ZM161-15.942h2.755q3.972,0,3.972-2.692,0-2.262-3.333-2.262h-2.562Zm39.738-4.4-6.3,1.6a2.7,2.7,0,0,0-1.346-1.723,4.617,4.617,0,0,0-2.369-.628q-2.423,0-2.423,1.615a1.292,1.292,0,0,0,.341.9,5.608,5.608,0,0,0,1.92.936l3.892,1.388a9.724,9.724,0,0,1,2.836,1.59,6.428,6.428,0,0,1,1.887,2.3,6.281,6.281,0,0,1,.575,2.663,7.632,7.632,0,0,1-2.917,6.134,11.8,11.8,0,0,1-7.781,2.421,14.944,14.944,0,0,1-7.26-1.687,9.079,9.079,0,0,1-4.317-5.151l7.072-1.382q.915,2.6,4.523,2.6a3.461,3.461,0,0,0,2.181-.547,1.588,1.588,0,0,0,.673-1.247,1.266,1.266,0,0,0-.26-.79,1.692,1.692,0,0,0-.556-.494q-.3-.153-2.79-1.072a42.254,42.254,0,0,1-4.729-1.97,6.052,6.052,0,0,1-2.263-2.161,6.177,6.177,0,0,1-.907-3.372,7.5,7.5,0,0,1,2.468-5.677q2.468-2.323,7.547-2.323a12.829,12.829,0,0,1,6.641,1.633A7.841,7.841,0,0,1,200.737-20.339Z" transform="translate(240.362 120)" fill="#0061bd"/>
    <path id="Path_13117" data-name="Path 13117" d="M5.993-16.5H2.8l-1.115,2.44H-1.276L4.25-25.994H7.995L9.848-14.056H6.326ZM5.78-18.962l-.475-3.454L3.732-18.962Zm15.161-.1,1.292,5H18.7l-1.051-4.539H16.238l-.762,4.539h-3.4l1.994-11.938h5.212a4.56,4.56,0,0,1,3.148.931,3.253,3.253,0,0,1,1.023,2.532A3.431,3.431,0,0,1,20.941-19.059Zm-4.286-2.02H18q1.935,0,1.935-1.312,0-1.1-1.624-1.1H17.061Zm23.624-4.915L38.285-14.056H34.925l1.067-6.358q.166-.979.429-2.046.21-.866.289-1.321-.105.271-.306.822-.429,1.146-.788,1.959l-3.09,6.944H30.374L29.554-21q-.113-.918-.157-1.959-.035-.621-.07-.962-.245,2.475-.542,4.268l-.935,5.6h-2.7l1.99-11.938h4.8l.64,5.282q.079.647.14.918a7.494,7.494,0,0,1,.359-.918l2.366-5.282ZM50.8-16.8l-.464,2.746h-8.8l1.994-11.938h8.579l-.437,2.615H46.553l-.31,1.872h4.3l-.437,2.589H45.814L45.463-16.8Zm14.3-9.191L63.105-14.056H60.452l-2.29-4.583a14.375,14.375,0,0,1-1.182-2.974Q57-21.35,57-21.2a8.438,8.438,0,0,1-.131,1.294l-.98,5.851H52.978l1.994-11.938h3.215L59.5-23.23a33.908,33.908,0,0,1,1.775,4.242q-.026-.359-.026-.534a14.718,14.718,0,0,1,.236-1.942l.76-4.53Zm6.65,0L69.756-14.056h-3.4l1.994-11.938Zm7.644,9.5H76.2l-1.115,2.44H72.125L77.65-25.994H81.4l1.853,11.938H79.727Zm-.213-2.466-.475-3.454-1.573,3.454Z" transform="translate(353.518 149.183)" fill="#0061bd"/>
  </g>
</svg>
