<svg xmlns="http://www.w3.org/2000/svg" xmlns:xlink="http://www.w3.org/1999/xlink" width="21.997" height="27.497" viewBox="0 0 21.997 27.497">
  <defs>
    <clipPath id="clip-path">
      <rect id="Rectangle_13" data-name="Rectangle 13" width="21.997" height="27.497" transform="translate(-0.465 -0.244)" fill="#858585" stroke="#707070" stroke-width="1"/>
    </clipPath>
  </defs>
  <g id="Mask_Group_3" data-name="Mask Group 3" transform="translate(0.465 0.244)" clip-path="url(#clip-path)">
    <path id="_002-shopping-bag" data-name="002-shopping-bag" d="M21.34,25.75,19.8,8.61a.693.693,0,0,0-.621-.69H15.32V6.548c0-3.183-2.085-5.773-4.648-5.773S6.024,3.364,6.024,6.548V7.92H2.166a.693.693,0,0,0-.621.69L0,25.75a.905.905,0,0,0,.155.6.58.58,0,0,0,.466.259H20.718a.58.58,0,0,0,.466-.259A.905.905,0,0,0,21.34,25.75ZM7.274,6.548c0-2.327,1.524-4.22,3.4-4.22s3.4,1.893,3.4,4.22V7.92H7.274ZM1.324,25.059l1.4-15.586h3.3v1.687a2.358,2.358,0,0,0-1.251,2.2,2.143,2.143,0,0,0,1.876,2.33,2.143,2.143,0,0,0,1.876-2.33,2.358,2.358,0,0,0-1.251-2.2V9.473h6.795v1.687a2.358,2.358,0,0,0-1.251,2.2,2.143,2.143,0,0,0,1.876,2.33,2.143,2.143,0,0,0,1.876-2.33,2.358,2.358,0,0,0-1.251-2.2V9.473h3.3l1.4,15.586ZM6.649,12.58a.714.714,0,0,1,.625.777.714.714,0,0,1-.625.777.714.714,0,0,1-.625-.777A.714.714,0,0,1,6.649,12.58Zm8.046,0a.714.714,0,0,1,.625.777.714.714,0,0,1-.625.777.714.714,0,0,1-.625-.777A.714.714,0,0,1,14.695,12.58Z" transform="translate(-0.05 -0.509)" fill="#858585"/>
  </g>
</svg>
