<svg xmlns="http://www.w3.org/2000/svg" xmlns:xlink="http://www.w3.org/1999/xlink" width="66" height="67" viewBox="0 0 66 67">
  <defs>
    <filter id="Rectangle_2086" x="0" y="0" width="66" height="67" filterUnits="userSpaceOnUse">
      <feOffset dy="3" input="SourceAlpha"/>
      <feGaussianBlur stdDeviation="2.5" result="blur"/>
      <feFlood flood-color="#6b6b6b" flood-opacity="0.161"/>
      <feComposite operator="in" in2="blur"/>
      <feComposite in="SourceGraphic"/>
    </filter>
    <clipPath id="clip-path">
      <rect id="Rectangle_1371" data-name="Rectangle 1371" width="28" height="27" transform="translate(-0.087 0.364)" fill="#0061bd" stroke="#707070" stroke-width="1"/>
    </clipPath>
  </defs>
  <g id="Group_11218" data-name="Group 11218" transform="translate(-353.5 -526.5)">
    <g transform="matrix(1, 0, 0, 1, 353.5, 526.5)" filter="url(#Rectangle_2086)">
      <rect id="Rectangle_2086-2" data-name="Rectangle 2086" width="51" height="52" rx="25.5" transform="translate(7.5 4.5)" fill="#fff"/>
    </g>
    <g id="Mask_Group_4" data-name="Mask Group 4" transform="translate(372.088 543.636)" clip-path="url(#clip-path)">
      <g id="instagram" transform="translate(1.433 0.579)">
        <path id="Path_11150" data-name="Path 11150" d="M24.444,7.2a8.949,8.949,0,0,0-.569-2.971A6.274,6.274,0,0,0,20.291.646,8.972,8.972,0,0,0,17.32.077C16.009.014,15.593,0,12.268,0S8.527.014,7.221.072A8.952,8.952,0,0,0,4.25.641,5.976,5.976,0,0,0,2.077,2.057,6.03,6.03,0,0,0,.666,4.225,8.973,8.973,0,0,0,.1,7.2C.035,8.507.02,8.923.02,12.248S.035,15.989.092,17.3a8.948,8.948,0,0,0,.569,2.971A6.273,6.273,0,0,0,4.245,23.85a8.973,8.973,0,0,0,2.971.569c1.306.058,1.722.072,5.047.072s3.741-.014,5.047-.072a8.947,8.947,0,0,0,2.971-.569,6.264,6.264,0,0,0,3.584-3.583,8.979,8.979,0,0,0,.569-2.971c.057-1.306.072-1.722.072-5.047s0-3.741-.062-5.047Zm-2.205,10a6.713,6.713,0,0,1-.421,2.273A4.063,4.063,0,0,1,19.492,21.8a6.736,6.736,0,0,1-2.273.421c-1.292.058-1.679.072-4.947.072s-3.66-.014-4.947-.072A6.709,6.709,0,0,1,5.053,21.8a3.768,3.768,0,0,1-1.407-.914,3.808,3.808,0,0,1-.914-1.406A6.738,6.738,0,0,1,2.312,17.2c-.058-1.292-.072-1.679-.072-4.947s.014-3.66.072-4.947a6.709,6.709,0,0,1,.421-2.273,3.722,3.722,0,0,1,.919-1.407,3.8,3.8,0,0,1,1.407-.914A6.741,6.741,0,0,1,7.331,2.3c1.292-.057,1.679-.072,4.947-.072s3.66.014,4.947.072a6.713,6.713,0,0,1,2.273.421,3.766,3.766,0,0,1,1.407.914,3.807,3.807,0,0,1,.914,1.407,6.74,6.74,0,0,1,.421,2.273c.057,1.292.072,1.679.072,4.947s-.014,3.65-.072,4.942Zm0,0" transform="translate(-0.02 0)" fill="#0061bd"/>
        <path id="Path_11151" data-name="Path 11151" d="M11.905,5.594A6.291,6.291,0,1,0,18.2,11.885,6.293,6.293,0,0,0,11.905,5.594Zm0,10.372a4.081,4.081,0,1,1,4.081-4.081A4.082,4.082,0,0,1,11.905,15.966Zm0,0" transform="translate(0.342 0.363)" fill="#0061bd"/>
        <path id="Path_11152" data-name="Path 11152" d="M19.223,5.45a1.469,1.469,0,1,1-1.469-1.469A1.469,1.469,0,0,1,19.223,5.45Zm0,0" transform="translate(1.034 0.258)" fill="#0061bd"/>
      </g>
    </g>
  </g>
</svg>
