<svg xmlns="http://www.w3.org/2000/svg" width="30" height="30" viewBox="0 0 30 30">
  <g id="Group_11215" data-name="Group 11215" transform="translate(-248 -397)">
    <circle id="Ellipse_28" data-name="Ellipse 28" cx="15" cy="15" r="15" transform="translate(248 397)" fill="#0061bd"/>
    <path id="Path_12465" data-name="Path 12465" d="M14.53,11.782l-1.643-1.1-1.46-.973a.647.647,0,0,0-.869.141l-.9,1.162a.644.644,0,0,1-.822.17A10.521,10.521,0,0,1,5.895,8.923,10.6,10.6,0,0,1,3.631,5.985a.644.644,0,0,1,.17-.822l1.162-.9A.647.647,0,0,0,5.1,3.391L4.16,1.976,3.035.288a.647.647,0,0,0-.871-.2L.867.871a1.585,1.585,0,0,0-.72.932C-.208,3.1-.28,5.95,4.294,10.524s7.427,4.5,8.721,4.147a1.585,1.585,0,0,0,.932-.72l.778-1.3A.647.647,0,0,0,14.53,11.782Z" transform="translate(256 405)" fill="#fff"/>
  </g>
</svg>
