<svg xmlns="http://www.w3.org/2000/svg" xmlns:xlink="http://www.w3.org/1999/xlink" width="67" height="67" viewBox="0 0 67 67">
  <defs>
    <filter id="Rectangle_2089" x="0" y="0" width="67" height="67" filterUnits="userSpaceOnUse">
      <feOffset dy="3" input="SourceAlpha"/>
      <feGaussianBlur stdDeviation="2.5" result="blur"/>
      <feFlood flood-color="#6b6b6b" flood-opacity="0.161"/>
      <feComposite operator="in" in2="blur"/>
      <feComposite in="SourceGraphic"/>
    </filter>
    <clipPath id="clip-path">
      <rect id="Rectangle_1373" data-name="Rectangle 1373" width="23" height="27" transform="translate(0.178 0.364)" fill="#0061bd" stroke="#707070" stroke-width="1"/>
    </clipPath>
  </defs>
  <g id="Group_11219" data-name="Group 11219" transform="translate(-413.5 -526.5)">
    <g transform="matrix(1, 0, 0, 1, 413.5, 526.5)" filter="url(#Rectangle_2089)">
      <rect id="Rectangle_2089-2" data-name="Rectangle 2089" width="52" height="52" rx="26" transform="translate(7.5 4.5)" fill="#fff"/>
    </g>
    <g id="Mask_Group_5" data-name="Mask Group 5" transform="translate(436.821 543.636)" clip-path="url(#clip-path)">
      <g id="twitter-black-shape" transform="translate(-0.869 2.879)">
        <path id="Path_11153" data-name="Path 11153" d="M24.491,4.522A10.015,10.015,0,0,1,21.6,5.3a4.874,4.874,0,0,0,2.207-2.766,9.853,9.853,0,0,1-3.186,1.212A5.031,5.031,0,0,0,13.4,3.629a4.837,4.837,0,0,0-1.468,3.551,5.571,5.571,0,0,0,.124,1.15A13.987,13.987,0,0,1,6.286,6.783,14.23,14.23,0,0,1,1.709,3.077,4.917,4.917,0,0,0,1.025,5.61,4.889,4.889,0,0,0,1.632,8,5.014,5.014,0,0,0,3.263,9.79,4.979,4.979,0,0,1,.995,9.153v.062a4.851,4.851,0,0,0,1.142,3.194,4.938,4.938,0,0,0,2.883,1.733,5.2,5.2,0,0,1-1.321.171,6.4,6.4,0,0,1-.948-.077,5.03,5.03,0,0,0,4.693,3.481A9.828,9.828,0,0,1,1.212,19.86,10.686,10.686,0,0,1,0,19.8a13.94,13.94,0,0,0,7.708,2.253,14.665,14.665,0,0,0,5.019-.847,12.757,12.757,0,0,0,4.01-2.269A15.182,15.182,0,0,0,19.6,15.664,14.586,14.586,0,0,0,21.4,11.8a14.266,14.266,0,0,0,.59-4.033q0-.435-.016-.653A10.512,10.512,0,0,0,24.491,4.522Z" transform="translate(0 -2.16)" fill="#0061bd"/>
      </g>
    </g>
  </g>
</svg>
