<svg xmlns="http://www.w3.org/2000/svg" width="70.924" height="70.925" viewBox="0 0 70.924 70.925">
  <g id="Group_7888" data-name="Group 7888" transform="translate(-5386 -10675)">
    <g id="Group_10415" data-name="Group 10415">
      <path id="Path_11347" data-name="Path 11347" d="M70.924,35.462A35.462,35.462,0,1,1,35.462,0,35.462,35.462,0,0,1,70.924,35.462Zm0,0" transform="translate(5386 10675)" fill="#e7482f"/>
      <g id="_001-google" data-name="001-google" transform="translate(5408 10697)">
        <path id="Path_11340" data-name="Path 11340" d="M57.123,303.68a13.651,13.651,0,0,1-20.723-3.51l.9-4.132,3.973-.738a7.331,7.331,0,0,0,6.972,5.161,7.176,7.176,0,0,0,4.271-1.391l3.818.582Z" transform="translate(-34.437 -279.376)" fill="#fff"/>
        <path id="Path_11341" data-name="Path 11341" d="M264.881,369.811l-.793-4.028-3.818-.582A7.175,7.175,0,0,1,256,366.591v6.525A13.783,13.783,0,0,0,264.881,369.811Z" transform="translate(-242.195 -345.507)" fill="#fff"/>
        <g id="Connected_Home_1_" transform="translate(0 6.816)">
          <g id="Group_5648" data-name="Group 5648">
            <g id="Group_5647" data-name="Group 5647">
              <g id="Group_5646" data-name="Group 5646">
                <path id="Path_11342" data-name="Path 11342" d="M6.525,133.389a7.539,7.539,0,0,0,.307,2.119l-4.869,4.869a13.423,13.423,0,0,1,0-13.977l3.908.673.961,4.2A7.538,7.538,0,0,0,6.525,133.389Z" transform="translate(0 -126.4)" fill="#fff"/>
              </g>
            </g>
          </g>
        </g>
        <path id="Path_11343" data-name="Path 11343" d="M255.614,199.235a13.783,13.783,0,0,1-4.923,10.5l-4.611-4.611a7.158,7.158,0,0,0,2.249-2.653h-6.519a.8.8,0,0,1-.809-.809v-4.853a.8.8,0,0,1,.809-.809h12.769a.8.8,0,0,1,.793.663A13.717,13.717,0,0,1,255.614,199.235Z" transform="translate(-228.004 -185.431)" fill="#fff"/>
        <path id="Path_11344" data-name="Path 11344" d="M262.52,202.471a7.159,7.159,0,0,1-2.249,2.653l4.611,4.611a13.673,13.673,0,0,0,4.681-13.071.8.8,0,0,0-.793-.663H256v6.471Z" transform="translate(-242.195 -185.431)" fill="#fff"/>
        <path id="Path_11345" data-name="Path 11345" d="M57.35,3.856a.816.816,0,0,1-.226.6L53.661,7.9a.792.792,0,0,1-1.051.081,7.236,7.236,0,0,0-4.368-1.456,7.331,7.331,0,0,0-6.972,5.161L36.4,6.816A13.643,13.643,0,0,1,57.058,3.257a.851.851,0,0,1,.291.6Z" transform="translate(-34.437 0)" fill="#fff"/>
        <path id="Path_11346" data-name="Path 11346" d="M260.368,7.981a.792.792,0,0,0,1.052-.081l3.462-3.446a.816.816,0,0,0,.227-.6.851.851,0,0,0-.291-.6A13.763,13.763,0,0,0,256,0V6.525A7.236,7.236,0,0,1,260.368,7.981Z" transform="translate(-242.195 0)" fill="#fff"/>
      </g>
    </g>
  </g>
</svg>
