<svg xmlns="http://www.w3.org/2000/svg" width="70.924" height="70.925" viewBox="0 0 70.924 70.925">
  <g id="Group_7887" data-name="Group 7887" transform="translate(-5484.342 -10674)">
    <g id="Group_10416" data-name="Group 10416">
      <path id="Path_11336" data-name="Path 11336" d="M70.924,35.462A35.462,35.462,0,1,1,35.462,0,35.462,35.462,0,0,1,70.924,35.462Zm0,0" transform="translate(5484.342 10674)" fill="#365ff5"/>
      <path id="Path_11351" data-name="Path 11351" d="M151.594,263.683c-1.741,0-2.621-1.311-2.621-3.932a6.632,6.632,0,1,0-1.6,4.239,4.674,4.674,0,0,0,4.218,2.315c5.243,0,5.243-4.934,5.243-6.554a14.419,14.419,0,1,0-4.394,10.363,1.315,1.315,0,0,0-1.835-1.885h0a11.8,11.8,0,1,1,3.607-8.478C154.216,262.69,153.555,263.683,151.594,263.683Zm-9.175,0a3.932,3.932,0,1,1,3.932-3.932A3.932,3.932,0,0,1,142.419,263.683Z" transform="translate(5377.401 10449.727)" fill="#fff"/>
    </g>
  </g>
</svg>
