<svg xmlns="http://www.w3.org/2000/svg" width="15.113" height="11" viewBox="0 0 15.113 11">
  <g id="Group_11028" data-name="Group 11028" transform="translate(-129 -623)">
    <g id="Group_11027" data-name="Group 11027">
      <g id="_001-email" data-name="001-email" transform="translate(129 623)" opacity="0.49">
        <g id="Group_5451" data-name="Group 5451" transform="translate(10.018 2.028)">
          <g id="Group_5450" data-name="Group 5450">
            <path id="Path_12474" data-name="Path 12474" d="M10.606,8.082l5.1,3.41V4.528Z" transform="translate(-10.606 -4.528)" fill="#303030"/>
          </g>
        </g>
        <g id="Group_5453" data-name="Group 5453" transform="translate(0 2.028)">
          <g id="Group_5452" data-name="Group 5452">
            <path id="Path_12475" data-name="Path 12475" d="M0,4.528v6.964l5.1-3.41Z" transform="translate(0 -4.528)" fill="#303030"/>
          </g>
        </g>
        <g id="Group_5455" data-name="Group 5455" transform="translate(0.028)">
          <g id="Group_5454" data-name="Group 5454">
            <path id="Path_12476" data-name="Path 12476" d="M14.17,2.5H.946a.953.953,0,0,0-.916.851L7.558,8.6l7.528-5.251A.953.953,0,0,0,14.17,2.5Z" transform="translate(-0.03 -2.5)" fill="#303030"/>
          </g>
        </g>
        <g id="Group_5457" data-name="Group 5457" transform="translate(0.03 6.185)">
          <g id="Group_5456" data-name="Group 5456">
            <path id="Path_12477" data-name="Path 12477" d="M9.155,8.686l-1.337.932a.452.452,0,0,1-.52,0L5.962,8.685.032,12.656a.951.951,0,0,0,.914.844H14.17a.951.951,0,0,0,.914-.844Z" transform="translate(-0.032 -8.685)" fill="#303030"/>
          </g>
        </g>
      </g>
    </g>
  </g>
</svg>
