<svg xmlns="http://www.w3.org/2000/svg" xmlns:xlink="http://www.w3.org/1999/xlink" width="18.422" height="17.399" viewBox="0 0 18.422 17.399">
  <defs>
    <clipPath id="clip-path">
      <rect id="Rectangle_2090" data-name="Rectangle 2090" width="18.422" height="17.399" fill="#858585" stroke="#707070" stroke-width="1"/>
    </clipPath>
  </defs>
  <g id="Mask_Group_60" data-name="Mask Group 60" clip-path="url(#clip-path)">
    <g id="_001-location" data-name="001-location" transform="translate(1.547 0.601)">
      <path id="Path_11361" data-name="Path 11361" d="M12.315,12.6c.035-.057.07-.113.1-.17A13.576,13.576,0,0,0,14.768,5.67a4.9,4.9,0,1,0-9.808,0,13.575,13.575,0,0,0,2.348,6.756c.035.058.07.114.1.17-3.3.408-5.494,1.589-5.494,2.991,0,1.76,3.49,3.139,7.946,3.139s7.946-1.379,7.946-3.139c0-1.4-2.19-2.583-5.494-2.991ZM5.488,5.67a4.375,4.375,0,0,1,8.751,0c.023,3.756-3.488,8.387-4.375,9.5-.887-1.111-4.4-5.742-4.375-9.5ZM9.864,18.2c-4.437,0-7.417-1.35-7.417-2.61,0-1.118,2.21-2.158,5.277-2.5a27.993,27.993,0,0,0,1.939,2.667.264.264,0,0,0,.4,0A27.992,27.992,0,0,0,12,13.091c3.067.337,5.277,1.377,5.277,2.5,0,1.26-2.98,2.61-7.417,2.61Z" transform="translate(-1.918 -0.765)" fill="#858585"/>
      <path id="Path_11362" data-name="Path 11362" d="M8.012,18.383a7.222,7.222,0,0,1-2.651-.744.264.264,0,1,0-.277.45,7.712,7.712,0,0,0,2.861.818l.034,0a.264.264,0,0,0,.033-.526Z" transform="translate(-2.228 -2.482)" fill="#858585"/>
      <path id="Path_11363" data-name="Path 11363" d="M11.1,18.611c-.368.008-.752.006-1.127-.007a.265.265,0,1,0-.019.529c.232.008.468.013.7.013q.231,0,.456-.005a.264.264,0,0,0,.258-.27.261.261,0,0,0-.271-.258Z" transform="translate(-2.711 -2.585)" fill="#858585"/>
      <path id="Path_11364" data-name="Path 11364" d="M12.745,5.974a2.232,2.232,0,1,0-2.232,2.233A2.232,2.232,0,0,0,12.745,5.974Zm-3.936,0a1.7,1.7,0,1,1,1.7,1.7,1.7,1.7,0,0,1-1.7-1.7Z" transform="translate(-2.567 -1.069)" fill="#858585"/>
    </g>
  </g>
</svg>
