<svg xmlns="http://www.w3.org/2000/svg" xmlns:xlink="http://www.w3.org/1999/xlink" width="18.422" height="17.399" viewBox="0 0 18.422 17.399">
  <defs>
    <clipPath id="clip-path">
      <rect id="Rectangle_2103" data-name="Rectangle 2103" width="18.422" height="17.399" transform="translate(0 0)" fill="#858585" stroke="#707070" stroke-width="1"/>
    </clipPath>
  </defs>
  <g id="Mask_Group_66" data-name="Mask Group 66" clip-path="url(#clip-path)">
    <g id="_001-email" data-name="001-email" transform="translate(1.74 1.894)">
      <g id="Group_6075" data-name="Group 6075">
        <g id="Group_6074" data-name="Group 6074">
          <path id="Path_11395" data-name="Path 11395" d="M15.5,5.928a.244.244,0,0,0-.011-.052.258.258,0,0,0-.015-.044.232.232,0,0,0-.026-.04.243.243,0,0,0-.034-.04s-.006-.009-.01-.012l-2.485-1.93v-2a.775.775,0,0,0-.775-.775h-2.8L8.224.162a.766.766,0,0,0-.943,0L6.16,1.033h-2.8a.775.775,0,0,0-.775.775v2L.1,5.739s-.006.009-.01.012a.242.242,0,0,0-.034.04.231.231,0,0,0-.026.04.255.255,0,0,0-.015.044A.245.245,0,0,0,0,5.927c0,.005,0,.01,0,.016V14.73a.767.767,0,0,0,.152.456s0,.005,0,.007l.008.007a.772.772,0,0,0,.611.3H14.73a.772.772,0,0,0,.613-.306s.005,0,.007-.006,0,0,0-.007a.767.767,0,0,0,.152-.456V5.943C15.506,5.938,15.5,5.933,15.5,5.928ZM7.6.57a.248.248,0,0,1,.308,0l.6.463H7ZM.84,14.989,7.6,9.739a.248.248,0,0,1,.308,0l6.759,5.249Zm14.149-.4L8.224,9.332a.767.767,0,0,0-.943,0L.516,14.586V6.337L4.751,9.625a.259.259,0,1,0,.317-.409L.766,5.876,2.584,4.463v2a.258.258,0,1,0,.517,0V1.808a.258.258,0,0,1,.258-.258h8.787a.258.258,0,0,1,.258.258V6.46a.258.258,0,1,0,.517,0v-2l1.818,1.413-4.31,3.347a.258.258,0,1,0,.317.408l4.243-3.294v8.249Z" transform="translate(0 0)" fill="#858585"/>
          <path id="Path_11396" data-name="Path 11396" d="M12.2,6.8V5.767a3.1,3.1,0,1,0-3.1,3.1.258.258,0,0,0,0-.517,2.584,2.584,0,1,1,2.584-2.584V6.8a.517.517,0,1,1-1.034,0V5.767a.258.258,0,1,0-.517,0A1.034,1.034,0,1,1,9.1,4.733a.258.258,0,1,0,0-.517A1.551,1.551,0,1,0,10.145,6.91,1.031,1.031,0,0,0,12.2,6.8Z" transform="translate(-1.348 -0.599)" fill="#858585"/>
        </g>
      </g>
    </g>
  </g>
</svg>
