<svg xmlns="http://www.w3.org/2000/svg" xmlns:xlink="http://www.w3.org/1999/xlink" width="18.422" height="18.422" viewBox="0 0 18.422 18.422">
  <defs>
    <clipPath id="clip-path">
      <rect id="Rectangle_2101" data-name="Rectangle 2101" width="18.422" height="18.422" transform="translate(0 0)" fill="#858585" stroke="#707070" stroke-width="1"/>
    </clipPath>
  </defs>
  <g id="Mask_Group_64" data-name="Mask Group 64" clip-path="url(#clip-path)">
    <g id="_001-call" data-name="001-call" transform="translate(0.513 0.736)">
      <g id="Group_6073" data-name="Group 6073">
        <g id="Group_6072" data-name="Group 6072">
          <path id="Path_11377" data-name="Path 11377" d="M17.528,13.894,13.893,11.47a1.061,1.061,0,0,0-1.421.231l-1.059,1.361a.453.453,0,0,1-.58.122l-.2-.111a12.173,12.173,0,0,1-3.172-2.492A12.222,12.222,0,0,1,4.967,7.409l-.11-.2a.453.453,0,0,1,.12-.582L6.337,5.567a1.062,1.062,0,0,0,.231-1.421L4.144.511A1.055,1.055,0,0,0,2.721.191L1.2,1.1A2.144,2.144,0,0,0,.223,2.373C-.324,4.367.087,7.809,5.158,12.881,9.191,16.914,12.194,18,14.258,18a5.3,5.3,0,0,0,1.407-.184,2.142,2.142,0,0,0,1.269-.978l.914-1.519A1.056,1.056,0,0,0,17.528,13.894Zm-.2,1.116-.912,1.52a1.547,1.547,0,0,1-.913.708c-1.841.506-5.058.087-9.926-4.781S.295,4.373.8,2.531a1.549,1.549,0,0,1,.708-.914L3.029.705a.458.458,0,0,1,.617.139L4.963,2.821,6.068,4.479a.461.461,0,0,1-.1.617L4.608,6.154A1.047,1.047,0,0,0,4.33,7.5l.108.2a12.7,12.7,0,0,0,2.594,3.31,12.71,12.71,0,0,0,3.31,2.594l.2.108a1.048,1.048,0,0,0,1.344-.277l1.059-1.361a.461.461,0,0,1,.617-.1l3.635,2.424A.458.458,0,0,1,17.332,15.011Z" transform="translate(-0.039 -0.04)" fill="#858585"/>
          <path id="Path_11378" data-name="Path 11378" d="M11.338,3.306a5.094,5.094,0,0,1,5.088,5.088.3.3,0,0,0,.6,0,5.693,5.693,0,0,0-5.687-5.687.3.3,0,1,0,0,.6Z" transform="translate(-1.161 -0.312)" fill="#858585"/>
          <path id="Path_11379" data-name="Path 11379" d="M11.338,5.306A3.3,3.3,0,0,1,14.63,8.6a.3.3,0,1,0,.6,0,3.9,3.9,0,0,0-3.891-3.891.3.3,0,1,0,0,.6Z" transform="translate(-1.161 -0.516)" fill="#858585"/>
          <path id="Path_11380" data-name="Path 11380" d="M11.338,7.306a1.5,1.5,0,0,1,1.5,1.5.3.3,0,0,0,.6,0,2.1,2.1,0,0,0-2.1-2.1.3.3,0,1,0,0,.6Z" transform="translate(-1.161 -0.72)" fill="#858585"/>
        </g>
      </g>
    </g>
  </g>
</svg>
