<svg xmlns="http://www.w3.org/2000/svg" width="66" height="36" viewBox="0 0 66 36">
  <g id="Group_9943" data-name="Group 9943" transform="translate(-693 -1496)">
    <g id="Group_10417" data-name="Group 10417">
      <g id="Rectangle_18214" data-name="Rectangle 18214" transform="translate(693 1496)" fill="#fff" stroke="#f9f9f9" stroke-width="1">
        <rect width="66" height="36" rx="1" stroke="none"/>
        <rect x="0.5" y="0.5" width="65" height="35" rx="0.5" fill="none"/>
      </g>
      <g id="Безымянный-1" transform="translate(628.201 1458.9)">
        <path id="Path_13321" data-name="Path 13321" d="M87.879,62.767l.1-.484a1.028,1.028,0,0,1-.4-.1,1.065,1.065,0,0,1-.341-.27.536.536,0,0,1-.156-.356L86.115,49.21a1.169,1.169,0,0,0-.185-.555.973.973,0,0,0-.413-.341,1.432,1.432,0,0,0-.555-.114h-6.3l-.128.484a.5.5,0,0,1,.3.1.784.784,0,0,1,.242.242.621.621,0,0,1,.1.3.752.752,0,0,1-.014.185l-.043.128L72.9,61.686a.94.94,0,0,0-.071.213,1.116,1.116,0,0,0-.028.2.627.627,0,0,0,.242.5,1,1,0,0,0,.654.2h4.538l.1-.484a.637.637,0,0,1-.285-.057.63.63,0,0,1-.213-.171.349.349,0,0,1-.085-.228v-.114a.511.511,0,0,1,.028-.156l.868-1.736h2.447l.185,2.162a.768.768,0,0,0,.313.626,1.5,1.5,0,0,0,.811.171h5.477ZM80.951,54.6l.171,2.361H79.913L80.951,54.6Z" transform="translate(0 -0.086)"/>
        <path id="Path_13322" data-name="Path 13322" d="M189.542,73.853a.7.7,0,0,1,.341-.5,1.564,1.564,0,0,1,.811-.171h.91a2.379,2.379,0,0,0,1.152-.256,1.472,1.472,0,0,0,.669-.811l.612-2.618H192.2a1.9,1.9,0,0,0-.683.114,1.388,1.388,0,0,0-.484.327,3,3,0,0,0-.384.512c-.128.2-.256.427-.413.669h-.256c.043-.142.071-.285.1-.413a2.825,2.825,0,0,0,.028-.313.669.669,0,0,0-.242-.569,1.213,1.213,0,0,0-.8-.213h-4.694l-.1.484a.542.542,0,0,1,.27.085.651.651,0,0,1,.228.213.685.685,0,0,1,.1.341v.185a1.261,1.261,0,0,1-.043.2l-2.077,8.905q-.021.149-.043.256a.945.945,0,0,0-.014.185.529.529,0,0,0,.185.4.859.859,0,0,0,.484.171h5.292l.128-.484a.4.4,0,0,1-.27-.1.745.745,0,0,1-.228-.242.623.623,0,0,1-.085-.327v-.171c0-.057.014-.114.014-.156l1.323-5.7Z" transform="translate(-94.266 -18.356)"/>
        <path id="Path_13323" data-name="Path 13323" d="M260.663,59.2a1.084,1.084,0,0,1-.91-.327,1.071,1.071,0,0,1-.1-.939l1.167-5.007a2.609,2.609,0,0,1,.242-.754,1.167,1.167,0,0,1,.484-.5,1.808,1.808,0,0,1,.854-.185h2.177a1.849,1.849,0,0,0,.825-.156,1.02,1.02,0,0,0,.455-.427,2.624,2.624,0,0,0,.242-.669c.043-.185.1-.413.171-.669s.114-.512.171-.782.1-.484.128-.683h-7.184a4.29,4.29,0,0,0-1.394.242,4.1,4.1,0,0,0-1.266.74,4.9,4.9,0,0,0-1.038,1.266A6.289,6.289,0,0,0,255,52.154l-1.167,5.093a13.041,13.041,0,0,0-.313,1.778,5.219,5.219,0,0,0,.057,1.508,2.447,2.447,0,0,0,.569,1.152,2.668,2.668,0,0,0,1.223.74,6.65,6.65,0,0,0,2.02.256h4.751a3.554,3.554,0,0,0,1.223-.171,1.415,1.415,0,0,0,.669-.469,1.94,1.94,0,0,0,.313-.74l.612-2.66h-.484a.6.6,0,0,1-.242.3,1.217,1.217,0,0,1-.413.185,1.668,1.668,0,0,1-.427.071h-2.731Z" transform="translate(-154.987)"/>
        <path id="Path_13324" data-name="Path 13324" d="M344.434,77.584a1.754,1.754,0,0,1,.228-.626.631.631,0,0,1,.3-.285,1.068,1.068,0,0,1,.37-.071h.484l-.441,1.92a.758.758,0,0,1-.2.4.517.517,0,0,1-.37.156h-.142a.528.528,0,0,1-.327-.085.4.4,0,0,1-.1-.313.817.817,0,0,1,.014-.171,1.116,1.116,0,0,1,.028-.2l.156-.726ZM349.9,70.4h-7.212l-.441,1.792q-.021.085-.043.213a1.077,1.077,0,0,0-.014.213.669.669,0,0,0,.213.555,1.239,1.239,0,0,0,.754.185h2.817a.534.534,0,0,1,.427.142.559.559,0,0,1,.043.5.624.624,0,0,1-.242.384.748.748,0,0,1-.455.114h-2.788a3.691,3.691,0,0,0-1.679.356,3.179,3.179,0,0,0-1.252,1.181,7.264,7.264,0,0,0-.839,2.191c-.028.171-.057.341-.085.526s-.057.356-.071.526-.028.313-.028.441a3,3,0,0,0,.27,1.38,1.556,1.556,0,0,0,.754.7,3.187,3.187,0,0,0,1.167.185h.868a5.641,5.641,0,0,0,1.053-.071,2.075,2.075,0,0,0,.726-.242,1.816,1.816,0,0,0,.526-.469,6.085,6.085,0,0,0,.484-.74h.256l-.057.27a1.156,1.156,0,0,0,0,.541.643.643,0,0,0,.3.4,1.275,1.275,0,0,0,.683.156h4.78l.1-.484a2.137,2.137,0,0,1-.285-.028.569.569,0,0,1-.256-.142.408.408,0,0,1-.114-.3.942.942,0,0,1,.014-.213c.014-.071.028-.142.043-.256l1.622-7.013c.014-.085.043-.2.057-.313a3,3,0,0,0,.028-.356,2.31,2.31,0,0,0,.014-.3,2.056,2.056,0,0,0-.285-1.1,1.723,1.723,0,0,0-.754-.669,2.116,2.116,0,0,0-1.1-.256Z" transform="translate(-228.331 -19.128)"/>
      </g>
    </g>
  </g>
</svg>
