<svg xmlns="http://www.w3.org/2000/svg" xmlns:xlink="http://www.w3.org/1999/xlink" width="28" height="28" viewBox="0 0 28 28">
  <defs>
    <clipPath id="clip-path">
      <rect id="Rectangle_17534" data-name="Rectangle 17534" width="28" height="28" transform="translate(251 490)" fill="#858585" stroke="#707070" stroke-width="1"/>
    </clipPath>
  </defs>
  <g id="Mask_Group_97" data-name="Mask Group 97" transform="translate(-251 -490)" clip-path="url(#clip-path)">
    <g id="Send_package" data-name="Send package" transform="translate(249.995 489.066)">
      <path id="Path_13119" data-name="Path 13119" d="M28.467,20.533H25.2v-.467a.467.467,0,0,0-.467-.467H21a.467.467,0,0,0-.467.467v.8l-2.919-.73a1.406,1.406,0,0,0-.7.006L9.483,22.136a1.85,1.85,0,0,0-1.054.76L3.877,20.269A1.868,1.868,0,1,0,2.01,23.5l8.273,4.776a1.4,1.4,0,0,0,.7.187h7.93a1.407,1.407,0,0,0,.626-.147l.994-.5v.645a.467.467,0,0,0,.467.467h3.733a.467.467,0,0,0,.467-.467V28h3.267a.467.467,0,0,0,.467-.467V21A.467.467,0,0,0,28.467,20.533Zm-9.345,6.953a.474.474,0,0,1-.209.047h-7.93a.467.467,0,0,1-.233-.063L2.479,22.7a.937.937,0,0,1-.338-1.276.949.949,0,0,1,1.27-.341l4.7,2.714a1.858,1.858,0,0,0,2.337,1.95l5.565-1.491a.467.467,0,1,0-.241-.9l-5.565,1.493a.933.933,0,1,1-.483-1.8l7.43-1.994a.467.467,0,0,1,.233,0l3.145.784v4.947ZM24.267,28h-2.8V20.533h2.8ZM28,27.067H25.2v-5.6H28Z" fill="#858585"/>
      <path id="Path_13120" data-name="Path 13120" d="M19.553,4.925,17.687,1.191a.467.467,0,0,0-.42-.258H4.2a.467.467,0,0,0-.418.258L1.916,4.925a.831.831,0,0,0-.049.209V18.2a.467.467,0,0,0,.467.467h16.8A.467.467,0,0,0,19.6,18.2V5.133a.831.831,0,0,0-.047-.209Zm-1.175-.258H12.964l-.7-2.8h4.713ZM9.333,5.6h2.8V9.978l-1.191-.6a.467.467,0,0,0-.417,0l-1.191.6ZM11.3,1.867l.7,2.8H9.464l.7-2.8Zm-6.814,0H9.2l-.7,2.8H3.088ZM18.667,17.733H2.8V5.6H8.4v5.133a.467.467,0,0,0,.675.418l1.658-.829,1.658.832a.467.467,0,0,0,.675-.42V5.6h5.6Z" fill="#858585"/>
    </g>
  </g>
</svg>
