<svg xmlns="http://www.w3.org/2000/svg" width="25.358" height="27.418" viewBox="0 0 25.358 27.418">
  <g id="Group_10414" data-name="Group 10414" transform="translate(-635 -881.584)">
    <rect id="Rectangle_18208" data-name="Rectangle 18208" width="25.358" height="27.418" rx="2" transform="translate(635 881.584)" fill="#ecf2f4"/>
    <g id="_001-phone-call" data-name="001-phone-call" transform="translate(641.487 888.164)">
      <g id="Group_6300" data-name="Group 6300" transform="translate(0)">
        <path id="Path_12561" data-name="Path 12561" d="M13.412,10.512l-1.849-2a1.193,1.193,0,0,0-2.047.5,1.244,1.244,0,0,1-1.453.857A5.951,5.951,0,0,1,4.631,6.157a1.314,1.314,0,0,1,.792-1.571,1.377,1.377,0,0,0,.462-2.213l-1.849-2a1.247,1.247,0,0,0-1.783,0L1,1.731C-.255,3.159,1.131,6.943,4.235,10.3s6.6,4.926,7.923,3.5l1.255-1.356A1.512,1.512,0,0,0,13.412,10.512Z" transform="translate(-0.539 0)"/>
      </g>
    </g>
  </g>
</svg>
