<svg id="Group_10414" data-name="Group 10414" xmlns="http://www.w3.org/2000/svg" width="16.999" height="16.999" viewBox="0 0 16.999 16.999">
  <path id="Path_13121" data-name="Path 13121" d="M8.5,17A8.5,8.5,0,1,1,17,8.5,8.509,8.509,0,0,1,8.5,17Zm0-15.785A7.285,7.285,0,1,0,15.785,8.5,7.294,7.294,0,0,0,8.5,1.214Zm0,0" fill="#c1c1c1"/>
  <path id="Path_13122" data-name="Path 13122" d="M152.965,153.573a.6.6,0,0,1-.429-.178l-6.071-6.071a.607.607,0,0,1,.858-.858l6.071,6.071a.607.607,0,0,1-.429,1.036Zm0,0" transform="translate(-141.43 -141.431)" fill="#c1c1c1"/>
  <path id="Path_13123" data-name="Path 13123" d="M146.893,153.572a.607.607,0,0,1-.429-1.036l6.071-6.071a.607.607,0,0,1,.858.858l-6.071,6.071A.6.6,0,0,1,146.893,153.572Zm0,0" transform="translate(-141.429 -141.43)" fill="#c1c1c1"/>
</svg>
