<svg xmlns="http://www.w3.org/2000/svg" width="66" height="36" viewBox="0 0 66 36">
  <g id="Group_9496" data-name="Group 9496" transform="translate(-955 -1575)">
    <g id="Group_10419" data-name="Group 10419">
      <g id="Group_9494" data-name="Group 9494" transform="translate(331 79)">
        <g id="Rectangle_2119" data-name="Rectangle 2119" transform="translate(624 1496)" fill="#fff" stroke="#f9f9f9" stroke-width="1">
          <rect width="66" height="36" rx="1" stroke="none"/>
          <rect x="0.5" y="0.5" width="65" height="35" rx="0.5" fill="none"/>
        </g>
        <path id="path3789" d="M32.982.5c-3.541,0-6.705,1.835-6.705,5.226,0,3.889,5.612,4.157,5.612,6.111,0,.823-.943,1.559-2.553,1.559a8.477,8.477,0,0,1-3.993-1.029l-.731,3.422a12.463,12.463,0,0,0,4.579.869c3.871,0,6.918-1.925,6.918-5.374,0-4.109-5.636-4.37-5.636-6.183,0-.644.774-1.35,2.379-1.35a8.087,8.087,0,0,1,3.289.748l.715-3.3A10.7,10.7,0,0,0,32.982.5ZM.586.749l-.086.5a16.654,16.654,0,0,1,2.831.816c1.728.624,1.851.987,2.142,2.114L8.643,16.4h4.25L19.441.749H15.2L10.994,11.391,9.277,2.371A1.856,1.856,0,0,0,7.346.749H.586Zm20.56,0L17.82,16.4h4.043L25.178.749H21.146ZM43.7.749a1.907,1.907,0,0,0-1.871,1.434L35.9,16.4h4.24l.82-2.37H46.13l.5,2.37H50.37L47.106.749H43.7Zm.551,4.229,1.257,5.873H42.139l2.11-5.873Z" transform="translate(631.5 1505.5)" fill="#fff"/>
      </g>
      <g id="Group_9163" data-name="Group 9163" transform="translate(122 78.157)">
        <g id="Page-1" transform="translate(840.948 1507.047)">
          <g id="Desktop-_-Home-1" data-name="Desktop-/-Home-1" transform="translate(0.052 0.636)">
            <g id="Group-11-Copy" transform="translate(0 0)">
              <g id="Group-7" transform="translate(18.255 3.22)">
                <path id="Fill-1" d="M.682,9.6H1.7V3.29H.682ZM1.2.891A.689.689,0,1,1,.51,1.58.689.689,0,0,1,1.2.891Z" transform="translate(-0.51 -0.891)" fill-rule="evenodd"/>
                <path id="Fill-3" d="M10.61,3.114a3.22,3.22,0,0,1,2.3.933V.891h1.016V9.6H12.906V8.841a3.373,3.373,0,0,1-2.3.928,3.328,3.328,0,1,1,0-6.655m0,1.036a2.272,2.272,0,1,1-.04,0h.04" transform="translate(-4.682 -0.891)" fill-rule="evenodd"/>
                <path id="Fill-4" d="M31.972,6.682a3.219,3.219,0,0,0-2.292.933V6.858H28.664v6.308H29.68V10.009a2.292,2.292,0,0,1,2.292-2.292Z" transform="translate(-17.855 -4.458)" fill-rule="evenodd"/>
                <path id="Fill-5" d="M44.519,6.912H45.55v6.308H44.519v-.757a3.372,3.372,0,0,1-2.3.928,3.313,3.313,0,0,1,0-6.621,3.22,3.22,0,0,1,2.3.933Zm-2.3.86a2.292,2.292,0,1,1-2.292,2.292,2.291,2.291,0,0,1,2.292-2.292Z" transform="translate(-24.246 -4.513)" fill-rule="evenodd"/>
                <path id="Fill-6" d="M61.065,6.888H60.049V13.2h1.016V10.039a2.292,2.292,0,0,1,4.583,0V13.2H66.67V10.039a2.292,2.292,0,0,1,4.583,0V13.2H72.27V10.039A3.313,3.313,0,0,0,66.152,8.28a3.317,3.317,0,0,0-2.81-1.549,3.219,3.219,0,0,0-2.3.928V6.888Z" transform="translate(-37.191 -4.488)" fill-rule="evenodd"/>
              </g>
              <g id="Group-10" transform="translate(0 0)">
                <path id="Fill-8" d="M2.911.932A5.532,5.532,0,0,0,.052,5.314h0V6.8a.573.573,0,0,0,.567.423h0a.572.572,0,0,0,.567-.572h0V5.877a4.481,4.481,0,0,1,2.3-3.963h0a4.461,4.461,0,0,1,4.583,0h0l.674.4.005,0h0A.562.562,0,0,0,9.512,2.1h.01a.581.581,0,0,0-.2-.777h0l-.685-.4A5.56,5.56,0,0,0,5.772.14h0A5.562,5.562,0,0,0,2.911.932m7.533,1.752a.566.566,0,0,0,.242.764h0l.664.4a4.465,4.465,0,0,1,2.292,3.963h0a4.489,4.489,0,0,1-2.292,3.968h0l-3.308,1.91a4.464,4.464,0,0,1-4.589,0h0A4.44,4.44,0,0,1,1.172,9.722h0V8.945A.576.576,0,0,0,.6,8.378h0A.572.572,0,0,0,.052,8.8h0v1.474a5.59,5.59,0,0,0,2.824,4.4h0a5.591,5.591,0,0,0,5.722,0h0l3.327-1.915a5.546,5.546,0,0,0,2.863-4.95h0a5.575,5.575,0,0,0-2.863-4.94h0l-.669-.4a.493.493,0,0,0-.049-.028h0a.564.564,0,0,0-.261-.064h0a.567.567,0,0,0-.5.306M4.059,2.93A3.367,3.367,0,0,0,2.335,5.9h0V9.722a3.312,3.312,0,0,0,1.724,2.966h0a3.328,3.328,0,0,0,3.421,0h0l.674-.4a.566.566,0,0,0,.186-.776h0a.562.562,0,0,0-.766-.212h0l-.011.006h0l-.669.4a2.3,2.3,0,0,1-2.3,0h0A2.227,2.227,0,0,1,3.463,9.722h0V5.9A2.226,2.226,0,0,1,4.616,3.913h0a2.269,2.269,0,0,1,2.3,0h0l3.308,1.915a2.217,2.217,0,0,1,1.139,1.979h0A2.233,2.233,0,0,1,10.221,9.79h0l-.674.4a.567.567,0,0,0-.164.785h0a.567.567,0,0,0,.735.192h0l.665-.391a3.358,3.358,0,0,0,1.725-2.966h0a3.312,3.312,0,0,0-1.725-2.961h0L7.48,2.93a3.3,3.3,0,0,0-1.711-.477h0a3.3,3.3,0,0,0-1.71.477m.708,2.415a1.135,1.135,0,0,0-.15.551h0v.777a.571.571,0,0,0,.622.516h0a.571.571,0,0,0,.516-.516h0V6.135a.147.147,0,0,1,.068-.122h0a.235.235,0,0,1,.142,0h0l1.466.831L8.9,7.69a.107.107,0,0,1,.069.117h0a.127.127,0,0,1-.069.122h0l-1.465.826L5.965,9.6a.18.18,0,0,1-.142,0h0a.112.112,0,0,1-.068-.117h0V8.945a.572.572,0,0,0-.623-.516h0a.571.571,0,0,0-.516.516h0v.777a1.108,1.108,0,0,0,.572.977h0a1.127,1.127,0,0,0,1.139,0h0L9.635,8.784a1.111,1.111,0,0,0,.572-.978h0a1.121,1.121,0,0,0-.572-.977h0L6.327,4.919a1.14,1.14,0,0,0-.566-.15h0a1.142,1.142,0,0,0-.994.577" transform="translate(-0.052 -0.14)" fill-rule="evenodd"/>
              </g>
            </g>
          </g>
        </g>
      </g>
    </g>
  </g>
</svg>
