<svg xmlns="http://www.w3.org/2000/svg" width="66" height="36" viewBox="0 0 66 36">
  <g id="Group_9944" data-name="Group 9944" transform="translate(-762 -1496)">
    <g id="Group_10418" data-name="Group 10418">
      <g id="Rectangle_18215" data-name="Rectangle 18215" transform="translate(762 1496)" fill="#fff" stroke="#f9f9f9" stroke-width="1">
        <rect width="66" height="36" rx="1" stroke="none"/>
        <rect x="0.5" y="0.5" width="65" height="35" rx="0.5" fill="none"/>
      </g>
      <g id="Group_9162" data-name="Group 9162" transform="translate(-4 4.831)">
        <path id="XMLID_1775_" d="M2954.241,2902.993v-1.907a1.119,1.119,0,0,0-1.208-1.208,1.254,1.254,0,0,0-1.081.541,1.112,1.112,0,0,0-1.017-.541,1.027,1.027,0,0,0-.89.445v-.382h-.667v3.051h.667v-1.685c0-.54.286-.794.731-.794s.667.286.667.794v1.685h.667v-1.685a.7.7,0,0,1,.731-.794c.445,0,.667.286.667.794v1.685Zm9.884-3.051h-1.08v-.921h-.668v.921h-.6v.6h.6v1.4c0,.7.286,1.112,1.049,1.112a1.775,1.775,0,0,0,.826-.223l-.191-.572a1.046,1.046,0,0,1-.572.159c-.318,0-.445-.19-.445-.508v-1.367h1.08Zm5.657-.063a.9.9,0,0,0-.794.445v-.382h-.667v3.051h.667v-1.716c0-.509.223-.794.636-.794a1.862,1.862,0,0,1,.413.063l.191-.636a2.1,2.1,0,0,0-.445-.032Zm-8.549.318a2.18,2.18,0,0,0-1.24-.318c-.763,0-1.271.381-1.271.985,0,.508.381.794,1.049.89l.318.032c.35.064.541.159.541.318,0,.222-.254.381-.7.381a1.755,1.755,0,0,1-1.017-.318l-.318.509a2.247,2.247,0,0,0,1.3.381c.89,0,1.4-.413,1.4-.985,0-.54-.413-.826-1.049-.921l-.318-.032c-.286-.032-.509-.1-.509-.286,0-.223.222-.35.572-.35a2.292,2.292,0,0,1,.954.254Zm17.734-.318a.9.9,0,0,0-.794.445v-.382h-.667v3.051h.667v-1.716c0-.509.222-.794.636-.794a1.864,1.864,0,0,1,.413.063l.19-.636a2.1,2.1,0,0,0-.445-.032Zm-8.518,1.589a1.527,1.527,0,0,0,1.621,1.589,1.581,1.581,0,0,0,1.081-.35l-.318-.54a1.285,1.285,0,0,1-.795.286.9.9,0,0,1-.922-.985.937.937,0,0,1,.922-.985,1.285,1.285,0,0,1,.795.286l.318-.54a1.581,1.581,0,0,0-1.081-.35,1.527,1.527,0,0,0-1.621,1.589Zm6.166,0v-1.526h-.667v.382a1.149,1.149,0,0,0-.953-.445,1.59,1.59,0,0,0,0,3.178,1.07,1.07,0,0,0,.953-.445v.381h.667Zm-2.447,0a.924.924,0,1,1,1.843,0,.924.924,0,1,1-1.843,0Zm-7.978-1.589a1.59,1.59,0,0,0,.032,3.178,1.943,1.943,0,0,0,1.24-.413l-.318-.477a1.519,1.519,0,0,1-.89.318.858.858,0,0,1-.922-.731h2.256v-.254a1.4,1.4,0,0,0-1.4-1.621Zm0,.572a.743.743,0,0,1,.763.731h-1.589a.8.8,0,0,1,.826-.731Zm16.558,1.017v-2.733h-.667v1.589a1.149,1.149,0,0,0-.953-.445,1.59,1.59,0,0,0,0,3.178,1.07,1.07,0,0,0,.953-.445v.381h.667Zm-2.447,0a.924.924,0,1,1,1.843,0,.924.924,0,1,1-1.843,0Zm-22.311,0v-1.526h-.667v.382a1.149,1.149,0,0,0-.954-.445,1.59,1.59,0,0,0,0,3.178,1.071,1.071,0,0,0,.954-.445v.381h.667Zm-2.479,0a.924.924,0,1,1,1.844,0,.924.924,0,1,1-1.844,0Z" transform="translate(-2167.504 -1379.157)"/>
        <rect id="rect19" width="10.011" height="17.988" transform="translate(793.507 1497.616)" fill="#dcdcdc"/>
        <path id="XMLID_330_" d="M2912.877,2250.943a11.472,11.472,0,0,1,4.354-8.994,11.441,11.441,0,1,0,0,17.988A11.424,11.424,0,0,1,2912.877,2250.943Z" transform="translate(-2118.734 -744.333)"/>
        <path id="path22" d="M3417.664,2250.943a11.429,11.429,0,0,1-18.5,8.994,11.466,11.466,0,0,0,0-17.988,11.429,11.429,0,0,1,18.5,8.994Z" transform="translate(-2600.638 -744.333)"/>
      </g>
    </g>
  </g>
</svg>
