<svg id="Group_10415" data-name="Group 10415" xmlns="http://www.w3.org/2000/svg" width="25.358" height="27.418" viewBox="0 0 25.358 27.418">
  <rect id="Rectangle_2118" data-name="Rectangle 2118" width="25.358" height="27.418" rx="2" fill="#ecf2f4"/>
  <g id="_001-email" data-name="001-email" transform="translate(5.636 8.781)">
    <g id="Group_6303" data-name="Group 6303" transform="translate(9.766 2.019)">
      <g id="Group_6302" data-name="Group 6302">
        <path id="Path_12562" data-name="Path 12562" d="M339.392,148.434l4.967,3.4V144.9Z" transform="translate(-339.392 -144.896)"/>
      </g>
    </g>
    <g id="Group_6305" data-name="Group 6305" transform="translate(0 2.019)">
      <g id="Group_6304" data-name="Group 6304">
        <path id="Path_12563" data-name="Path 12563" d="M0,144.9v6.934l4.967-3.4Z" transform="translate(0 -144.896)"/>
      </g>
    </g>
    <g id="Group_6307" data-name="Group 6307" transform="translate(0.028 0)">
      <g id="Group_6306" data-name="Group 6306">
        <path id="Path_12564" data-name="Path 12564" d="M14.745,80H1.853a.937.937,0,0,0-.893.847L8.3,86.075l7.339-5.228A.937.937,0,0,0,14.745,80Z" transform="translate(-0.96 -80)"/>
      </g>
    </g>
    <g id="Group_6309" data-name="Group 6309" transform="translate(0.029 6.158)">
      <g id="Group_6308" data-name="Group 6308" transform="translate(0 0)">
        <path id="Path_12565" data-name="Path 12565" d="M9.917,277.921l-1.3.928a.434.434,0,0,1-.506,0l-1.3-.929-5.781,3.954a.935.935,0,0,0,.891.84H14.807a.935.935,0,0,0,.891-.84Z" transform="translate(-1.024 -277.92)"/>
      </g>
    </g>
  </g>
</svg>
