<svg xmlns="http://www.w3.org/2000/svg" width="66" height="36" viewBox="0 0 66 36">
  <g id="Group_9942" data-name="Group 9942" transform="translate(-624 -1496)">
    <g id="Group_10416" data-name="Group 10416">
      <g id="Rectangle_2119" data-name="Rectangle 2119" transform="translate(624 1496)" fill="#fff" stroke="#f9f9f9" stroke-width="1">
        <rect width="66" height="36" rx="1" stroke="none"/>
        <rect x="0.5" y="0.5" width="65" height="35" rx="0.5" fill="none"/>
      </g>
      <path id="path3789" d="M32.982.5c-3.541,0-6.705,1.835-6.705,5.226,0,3.889,5.612,4.157,5.612,6.111,0,.823-.943,1.559-2.553,1.559a8.477,8.477,0,0,1-3.993-1.029l-.731,3.422a12.463,12.463,0,0,0,4.579.869c3.871,0,6.918-1.925,6.918-5.374,0-4.109-5.636-4.37-5.636-6.183,0-.644.774-1.35,2.379-1.35a8.087,8.087,0,0,1,3.289.748l.715-3.3A10.7,10.7,0,0,0,32.982.5ZM.586.749l-.086.5a16.654,16.654,0,0,1,2.831.816c1.728.624,1.851.987,2.142,2.114L8.643,16.4h4.25L19.441.749H15.2L10.994,11.391,9.277,2.371A1.856,1.856,0,0,0,7.346.749H.586Zm20.56,0L17.82,16.4h4.043L25.178.749H21.146ZM43.7.749a1.907,1.907,0,0,0-1.871,1.434L35.9,16.4h4.24l.82-2.37H46.13l.5,2.37H50.37L47.106.749H43.7Zm.551,4.229,1.257,5.873H42.139l2.11-5.873Z" transform="translate(631.5 1505.5)"/>
    </g>
  </g>
</svg>
