<svg xmlns="http://www.w3.org/2000/svg" xmlns:xlink="http://www.w3.org/1999/xlink" width="56.579" height="25" viewBox="0 0 56.579 25">
  <defs>
    <linearGradient id="linear-gradient" x1="0.477" y1="1.257" x2="0.532" y2="-0.489" gradientUnits="objectBoundingBox">
      <stop offset="0" stop-color="#fb6723"/>
      <stop offset="1" stop-color="#ff9500"/>
    </linearGradient>
    <clipPath id="clip-Artboard_6">
      <rect width="56.579" height="25"/>
    </clipPath>
  </defs>
  <g id="Artboard_6" data-name="Artboard – 6" clip-path="url(#clip-Artboard_6)">
    <g id="Group_1" data-name="Group 1" transform="translate(3)">
      <path id="Path_5" data-name="Path 5" d="M1.46-8.656H2.486v-2.269q.156,0,.365.008a1.367,1.367,0,0,1,.357.055.672.672,0,0,1,.248.172,2.539,2.539,0,0,1,.23.278q.11.153.2.305l.163.27.743,1.182H6.018L5.4-9.72l-.241-.4a3.65,3.65,0,0,0-.241-.352,2.761,2.761,0,0,0-.28-.309,2.294,2.294,0,0,0-.365-.278,1.659,1.659,0,0,0,.966-.458,1.424,1.424,0,0,0,.372-1.052,1.812,1.812,0,0,0-.092-.614,1.261,1.261,0,0,0-.244-.423,1.1,1.1,0,0,0-.354-.262,2.121,2.121,0,0,0-.425-.145,2.629,2.629,0,0,0-.449-.063q-.227-.012-.432-.012H1.46Zm1.026-3.138v-1.377H3.647q.163,0,.326.016a.739.739,0,0,1,.29.086.562.562,0,0,1,.209.2.7.7,0,0,1,.081.368.716.716,0,0,1-.088.383.567.567,0,0,1-.23.211.937.937,0,0,1-.315.09,3.122,3.122,0,0,1-.35.02Zm3.872.454a3.721,3.721,0,0,0,.163,1.131A2.456,2.456,0,0,0,7-9.332a2.171,2.171,0,0,0,.775.567,2.585,2.585,0,0,0,1.055.2,2.542,2.542,0,0,0,1.055-.207,2.1,2.1,0,0,0,.768-.579,2.558,2.558,0,0,0,.467-.884,3.8,3.8,0,0,0,.159-1.131,3.876,3.876,0,0,0-.159-1.139,2.517,2.517,0,0,0-.471-.892,2.136,2.136,0,0,0-.772-.579,2.561,2.561,0,0,0-1.062-.207,2.538,2.538,0,0,0-1.069.211,2.123,2.123,0,0,0-.768.587,2.546,2.546,0,0,0-.464.9A3.987,3.987,0,0,0,6.358-11.34Zm1.055-.039a3.257,3.257,0,0,1,.074-.7,1.808,1.808,0,0,1,.241-.595,1.235,1.235,0,0,1,.435-.411,1.316,1.316,0,0,1,.658-.153,1.3,1.3,0,0,1,.655.153,1.257,1.257,0,0,1,.432.407,1.712,1.712,0,0,1,.237.587,3.357,3.357,0,0,1,.071.7,3.274,3.274,0,0,1-.074.7,1.949,1.949,0,0,1-.237.606,1.258,1.258,0,0,1-.428.426,1.245,1.245,0,0,1-.655.16,1.255,1.255,0,0,1-.648-.156,1.3,1.3,0,0,1-.435-.419,1.86,1.86,0,0,1-.248-.6A3.131,3.131,0,0,1,7.413-11.379Zm7.906.728a2.372,2.372,0,0,1-.138.442,1.4,1.4,0,0,1-.227.368.991.991,0,0,1-.326.25,1,1,0,0,1-.435.09,1.063,1.063,0,0,1-.626-.172,1.193,1.193,0,0,1-.382-.446A1.993,1.993,0,0,1,13-10.733a4.693,4.693,0,0,1-.05-.677A3.91,3.91,0,0,1,13-12.075a1.873,1.873,0,0,1,.2-.587,1.15,1.15,0,0,1,.389-.419,1.124,1.124,0,0,1,.623-.16,1.033,1.033,0,0,1,.69.243,1.165,1.165,0,0,1,.379.665l1.012-.258a2.1,2.1,0,0,0-.736-1.2,2.1,2.1,0,0,0-1.3-.391,2.3,2.3,0,0,0-1.041.223,2.135,2.135,0,0,0-.743.606,2.591,2.591,0,0,0-.442.908,4.179,4.179,0,0,0-.145,1.119,3.75,3.75,0,0,0,.149,1.072,2.651,2.651,0,0,0,.439.876,2.092,2.092,0,0,0,.726.595,2.2,2.2,0,0,0,1,.219,2.007,2.007,0,0,0,1.359-.446,2.516,2.516,0,0,0,.743-1.307Zm1.883,2h1.019V-10.3l.828-.908,1.394,2.551h1.324l-2.01-3.318,1.911-2.113h-1.38l-2.067,2.41v-2.41H17.2Zm5.1,0h3.851v-.916H23.318V-11.05h2.548v-.916H23.318v-1.205h2.739v-.916H22.3Zm5.861,0h1.019v-4.515h1.5v-.916H26.652v.916h1.508Zm6.59,0h3.567v-.916H35.769v-4.476H34.749Zm4.261,0h1.026v-5.431H39.011Zm2.01,0h.948V-12.2l2.046,3.545h1.026v-5.431h-.948v3.623l-2.074-3.623h-1Zm5.1,0h3.851v-.916H47.143V-11.05h2.548v-.916H47.143v-1.205h2.739v-.916H46.124Z" transform="translate(-0.46 15.097)" fill="#606060"/>
      <g id="Page-1" transform="translate(1 10.832)">
        <g id="Desktop-_-Home-1" data-name="Desktop-/-Home-1" transform="translate(0 0)">
          <g id="Group-11-Copy" transform="translate(0 0)">
            <g id="Group-7" transform="translate(16.052 2.831)">
              <path id="Fill-1" d="M.661,8.547h.894V3H.661ZM1.117.891A.606.606,0,1,1,.51,1.5.606.606,0,0,1,1.117.891Z" transform="translate(-0.51 -0.891)" fill="#606060" fill-rule="evenodd"/>
              <path id="Fill-3" d="M10.208,2.846a2.831,2.831,0,0,1,2.019.821V.891h.893V8.547h-.893V7.881a2.966,2.966,0,0,1-2.019.816,2.926,2.926,0,1,1,0-5.852m0,.911a2,2,0,1,1-.035,0h.035" transform="translate(-4.996 -0.891)" fill="#606060" fill-rule="evenodd"/>
              <path id="Fill-4" d="M31.572,6.682a2.831,2.831,0,0,0-2.015.821V6.836h-.894v5.547h.894V9.608a2.015,2.015,0,0,1,2.015-2.015Z" transform="translate(-19.16 -4.727)" fill="#606060" fill-rule="evenodd"/>
              <path id="Fill-5" d="M43.857,6.9h.907v5.547h-.907v-.666a2.965,2.965,0,0,1-2.019.816,2.913,2.913,0,0,1,0-5.822,2.831,2.831,0,0,1,2.019.821Zm-2.019.756a2.015,2.015,0,1,1-2.015,2.015,2.015,2.015,0,0,1,2.015-2.015Z" transform="translate(-26.031 -4.786)" fill="#606060" fill-rule="evenodd"/>
              <path id="Fill-6" d="M60.943,6.869h-.894v5.547h.894V9.64a2.015,2.015,0,0,1,4.03,0v2.776h.9V9.64a2.015,2.015,0,0,1,4.03,0v2.776h.894V9.64a2.913,2.913,0,0,0-5.38-1.547,2.917,2.917,0,0,0-2.47-1.362,2.831,2.831,0,0,0-2.019.816V6.869Z" transform="translate(-39.95 -4.759)" fill="#606060" fill-rule="evenodd"/>
            </g>
            <g id="Group-10">
              <path id="Fill-8" d="M2.566.836A4.865,4.865,0,0,0,.052,4.689h0V6a.5.5,0,0,0,.5.372h0a.5.5,0,0,0,.5-.5h0V5.184A3.94,3.94,0,0,1,3.068,1.7h0a3.922,3.922,0,0,1,4.03,0h0l.593.348,0,0h0a.494.494,0,0,0,.674-.183h.009a.511.511,0,0,0-.18-.683h0L7.6.836A4.889,4.889,0,0,0,5.082.14h0a4.891,4.891,0,0,0-2.516.7M9.189,2.377a.5.5,0,0,0,.213.672h0l.584.348A3.926,3.926,0,0,1,12,6.881h0A3.947,3.947,0,0,1,9.986,10.37h0L7.077,12.049a3.925,3.925,0,0,1-4.035,0h0A3.9,3.9,0,0,1,1.037,8.565h0V7.882a.507.507,0,0,0-.5-.5h0a.5.5,0,0,0-.482.372h0v1.3a4.915,4.915,0,0,0,2.483,3.865h0a4.916,4.916,0,0,0,5.032,0h0l2.925-1.684A4.876,4.876,0,0,0,13.01,6.881h0a4.9,4.9,0,0,0-2.518-4.344h0L9.9,2.189a.434.434,0,0,0-.043-.025h0a.5.5,0,0,0-.229-.057h0a.5.5,0,0,0-.443.269m-5.614.217A2.96,2.96,0,0,0,2.059,5.2h0V8.565a2.913,2.913,0,0,0,1.516,2.608h0a2.927,2.927,0,0,0,3.008,0h0l.592-.348a.5.5,0,0,0,.164-.683h0a.494.494,0,0,0-.674-.186h0l-.009.006h0l-.589.348a2.019,2.019,0,0,1-2.02,0h0a1.958,1.958,0,0,1-1-1.744h0V5.2A1.957,1.957,0,0,1,4.065,3.457h0a2,2,0,0,1,2.019,0h0L8.993,5.141a1.95,1.95,0,0,1,1,1.74h0a1.963,1.963,0,0,1-1,1.744h0L8.4,8.974a.5.5,0,0,0-.144.69h0a.5.5,0,0,0,.647.169h0l.584-.344A2.953,2.953,0,0,0,11,6.881h0a2.912,2.912,0,0,0-1.517-2.6h0l-2.9-1.684a2.9,2.9,0,0,0-1.5-.42h0a2.9,2.9,0,0,0-1.5.42M4.2,4.717a1,1,0,0,0-.132.484h0v.684a.5.5,0,0,0,.547.454h0a.5.5,0,0,0,.454-.454h0V5.412a.129.129,0,0,1,.06-.107h0a.207.207,0,0,1,.125,0h0l1.289.73,1.289.744a.094.094,0,0,1,.061.1h0a.112.112,0,0,1-.061.107h0L6.54,7.715l-1.289.743a.158.158,0,0,1-.125,0h0a.1.1,0,0,1-.06-.1h0V7.882a.5.5,0,0,0-.547-.454h0a.5.5,0,0,0-.454.454h0v.684a.974.974,0,0,0,.5.859h0a.991.991,0,0,0,1,0h0L8.478,7.741a.977.977,0,0,0,.5-.86h0a.985.985,0,0,0-.5-.859h0L5.569,4.342a1,1,0,0,0-.5-.132h0a1,1,0,0,0-.874.507" transform="translate(-0.052 -0.14)" fill-rule="evenodd" fill="url(#linear-gradient)"/>
            </g>
          </g>
        </g>
      </g>
      <rect id="Rectangle_1" data-name="Rectangle 1" width="48.073" height="1.424" rx="0.712" transform="translate(1 8.186)" fill="#3ab643"/>
    </g>
  </g>
</svg>
