<svg xmlns="http://www.w3.org/2000/svg" xmlns:xlink="http://www.w3.org/1999/xlink" width="35" height="15" viewBox="0 0 35 15">
  <defs>
    <clipPath id="clip-Artboard_2">
      <rect width="35" height="15"/>
    </clipPath>
  </defs>
  <g id="Artboard_2" data-name="Artboard – 2" clip-path="url(#clip-Artboard_2)">
    <g id="maestro" transform="translate(9.002 1)">
      <path id="Path_12397" data-name="Path 12397" d="M61.25,28.834V28.62h-.058l-.064.147-.064-.147h-.039v.214h.042v-.162l.058.139h.042l.058-.139v.162Zm-.353,0v-.177h.072V28.62H60.8v.038h.075v.177Z" transform="translate(-44.318 -20.423)" fill="#0099df"/>
      <path id="Path_12398" data-name="Path 12398" d="M37.106,17.2H32.28V8.53h4.826Z" transform="translate(-26.084 -7.646)" fill="#6c6bbd"/>
      <path id="Path_12399" data-name="Path 12399" d="M21.757,10.9a5.509,5.509,0,0,1,2.1-4.338,5.516,5.516,0,1,0,0,8.676A5.505,5.505,0,0,1,21.755,10.9" transform="translate(-14.939 -5.38)" fill="#eb001b"/>
      <path id="Path_12400" data-name="Path 12400" d="M47.634,10.9a5.516,5.516,0,0,1-8.924,4.338,5.524,5.524,0,0,0,0-8.676A5.516,5.516,0,0,1,47.634,10.9" transform="translate(-30.414 -5.38)" fill="#0099df"/>
      <path id="Path_12401" data-name="Path 12401" d="M32.75,37.489a.642.642,0,0,1,.231.042l-.1.3a.469.469,0,0,0-.2-.038c-.207,0-.312.135-.312.375v.822h-.32V37.527h.315V37.7a.435.435,0,0,1,.375-.214m-1.167.312h-.5v.664c0,.147.053.244.214.244a.57.57,0,0,0,.282-.083l.09.274a.769.769,0,0,1-.4.115c-.375,0-.507-.2-.507-.544V37.8h-.3v-.289h.3V37.08h.319v.447h.519Zm-4.082.315a.375.375,0,1,1,.75,0Zm1.1.13a.7.7,0,0,0-.692-.75.717.717,0,0,0-.75.75.724.724,0,0,0,.75.769.886.886,0,0,0,.6-.207l-.154-.237a.713.713,0,0,1-.428.154.4.4,0,0,1-.435-.375h1.084v-.124m1.4-.375a.964.964,0,0,0-.454-.124c-.177,0-.282.064-.282.173s.115.124.248.143l.15.023c.319.045.514.18.514.435s-.248.48-.668.48a1.032,1.032,0,0,1-.635-.192l.15-.248a.777.777,0,0,0,.488.154c.218,0,.334-.064.334-.177s-.083-.132-.259-.154l-.15-.023c-.327-.045-.507-.192-.507-.432s.24-.469.612-.469a1.092,1.092,0,0,1,.6.154Zm3.955-.049a.48.48,0,0,0-.18.034.45.45,0,0,0-.244.244.54.54,0,0,0-.034.192.51.51,0,0,0,.034.192.417.417,0,0,0,.1.15.435.435,0,0,0,.147.1.48.48,0,0,0,.18.034.488.488,0,0,0,.184-.034.435.435,0,0,0,.147-.1.417.417,0,0,0,.1-.15.447.447,0,0,0,.038-.192.469.469,0,0,0-.038-.192.45.45,0,0,0-.244-.244.488.488,0,0,0-.184-.034m0-.3a.814.814,0,0,1,.57.222.848.848,0,0,1,.165.244.833.833,0,0,1,.058.308.818.818,0,0,1-.058.308.8.8,0,0,1-.165.244.808.808,0,0,1-.252.165.923.923,0,0,1-.635,0,.75.75,0,0,1-.248-.165.687.687,0,0,1-.165-.244.818.818,0,0,1,0-.615.721.721,0,0,1,.165-.244.75.75,0,0,1,.248-.162.8.8,0,0,1,.315-.058m-8.285.745a.439.439,0,1,1,.12.333.439.439,0,0,1-.12-.333m1.186,0v-.719H26.5V37.7a.552.552,0,0,0-.462-.214.769.769,0,0,0,0,1.539.552.552,0,0,0,.462-.214v.177h.319ZM25.023,39v-.923a.548.548,0,0,0-.577-.582.567.567,0,0,0-.514.259.537.537,0,0,0-.484-.259.48.48,0,0,0-.428.218v-.18H22.7V38.99h.319v-.814a.346.346,0,0,1,.375-.375c.21,0,.319.139.319.375v.814h.323v-.814a.346.346,0,0,1,.375-.375c.218,0,.323.139.323.375v.814Z" transform="translate(-20.101 -26.053)" fill="#231f20"/>
      <path id="Path_12402" data-name="Path 12402" d="M55.431,41.7v.045h0Zm.034-.027a.067.067,0,0,1,.042,0,.049.049,0,0,1,0,.034.034.034,0,0,1,0,.027.071.071,0,0,1-.034,0l.045.049h-.034l-.038-.038h0v.049H55.42v-.135Zm0,.18a.094.094,0,0,0,.045,0l.034-.023a.135.135,0,0,0,.027-.038.139.139,0,0,0,0-.09l-.027-.034-.034-.027h-.09l-.038.027a.174.174,0,0,0-.023.034.139.139,0,0,0,0,.09.123.123,0,0,0,.023.038l.037.023a.094.094,0,0,0,.045,0m0-.259a.105.105,0,0,1,.058,0,.1.1,0,0,1,.049.03.135.135,0,0,1,.03.045.15.15,0,0,1,0,.058.111.111,0,0,1-.079.135h-.058a.154.154,0,0,1-.058,0,.135.135,0,0,1-.045-.03.143.143,0,0,1-.034-.049.124.124,0,0,1,0-.058.15.15,0,0,1,0-.058.1.1,0,0,1,.034-.045.075.075,0,0,1,.045-.03.109.109,0,0,1,.058,0" transform="translate(-40.79 -28.869)" fill="#231f20"/>
    </g>
  </g>
</svg>
