<svg xmlns="http://www.w3.org/2000/svg" xmlns:xlink="http://www.w3.org/1999/xlink" width="35" height="15" viewBox="0 0 35 15">
  <defs>
    <clipPath id="clip-Artboard_5">
      <rect width="35" height="15"/>
    </clipPath>
  </defs>
  <g id="Artboard_5" data-name="Artboard – 5" clip-path="url(#clip-Artboard_5)">
    <g id="arca" transform="translate(-102.9 -266.5)">
      <path id="Path_1" data-name="Path 1" d="M115.094,278.388l.053-.263a.566.566,0,0,1-.221-.053.656.656,0,0,1-.19-.147.305.305,0,0,1-.084-.19l-.527-6.677a.59.59,0,0,0-.105-.305.548.548,0,0,0-.221-.19.72.72,0,0,0-.305-.063h-3.4l-.074.263a.314.314,0,0,1,.158.053.363.363,0,0,1,.126.126.313.313,0,0,1,.053.158.234.234,0,0,1-.011.095c-.011.021-.011.053-.032.074l-3.36,6.509a.377.377,0,0,0-.042.116.4.4,0,0,0-.011.105.355.355,0,0,0,.126.274.508.508,0,0,0,.348.105h2.475l.053-.263a.423.423,0,0,1-.158-.032.257.257,0,0,1-.116-.095.324.324,0,0,1-.053-.126V277.8a.2.2,0,0,1,.021-.084l.463-.937h1.38l.105,1.169a.405.405,0,0,0,.169.337.812.812,0,0,0,.442.095h2.938Zm-3.749-4.413.095,1.285h-.653l.558-1.285Z" transform="translate(0 0)" fill="#2b2c6d"/>
      <path id="Path_2" data-name="Path 2" d="M191.376,288.459a.425.425,0,0,1,.19-.274.812.812,0,0,1,.442-.095h.495a1.26,1.26,0,0,0,.621-.137.811.811,0,0,0,.358-.432l.326-1.422h-.99a.927.927,0,0,0-.369.063.777.777,0,0,0-.263.179,1.443,1.443,0,0,0-.211.274c-.063.105-.137.232-.221.358h-.137c.021-.084.042-.158.053-.221a1.217,1.217,0,0,0,.021-.168.375.375,0,0,0-.126-.305.683.683,0,0,0-.432-.116H188.6l-.053.263a.263.263,0,0,1,.147.042.436.436,0,0,1,.126.116.355.355,0,0,1,.053.179v.095a.463.463,0,0,1-.021.105l-1.116,4.813a.724.724,0,0,0-.021.137.363.363,0,0,0-.011.095.278.278,0,0,0,.105.221.492.492,0,0,0,.263.095h2.854l.074-.263a.252.252,0,0,1-.147-.053.363.363,0,0,1-.126-.126.318.318,0,0,1-.053-.168v-.095a.205.205,0,0,1,.011-.084l.7-3.075Z" transform="translate(-72.29 -13.957)" fill="#2b2c6d"/>
      <path id="Path_3" data-name="Path 3" d="M243.014,276.5a.6.6,0,0,1-.495-.179.568.568,0,0,1-.053-.506l.632-2.707a1.448,1.448,0,0,1,.137-.411.66.66,0,0,1,.263-.274.95.95,0,0,1,.463-.095h1.158a1.085,1.085,0,0,0,.453-.084.572.572,0,0,0,.242-.232,1.585,1.585,0,0,0,.126-.358c.032-.105.053-.221.095-.369s.063-.284.095-.421a3.006,3.006,0,0,0,.063-.369h-3.886a2.275,2.275,0,0,0-.748.126,2.16,2.16,0,0,0-.685.4,2.6,2.6,0,0,0-.558.685,3.452,3.452,0,0,0-.369.979l-.632,2.749a7.376,7.376,0,0,0-.169.958,2.557,2.557,0,0,0,.032.811,1.328,1.328,0,0,0,.305.621,1.512,1.512,0,0,0,.663.4,3.488,3.488,0,0,0,1.085.137h2.57a1.885,1.885,0,0,0,.663-.095.783.783,0,0,0,.358-.253.922.922,0,0,0,.169-.4l.326-1.443h-.263a.3.3,0,0,1-.126.158,1.077,1.077,0,0,1-.221.105.939.939,0,0,1-.232.032h-1.464Z" transform="translate(-118.305)" fill="#2b2c6d"/>
      <path id="Path_4" data-name="Path 4" d="M304.359,290.686a1.23,1.23,0,0,1,.116-.337.473.473,0,0,1,.169-.158.422.422,0,0,1,.2-.032h.263l-.242,1.043a.443.443,0,0,1-.105.211.288.288,0,0,1-.2.084h-.084c-.084,0-.137-.011-.169-.053s-.053-.084-.053-.168a.363.363,0,0,1,.011-.095c0-.032.011-.074.011-.105l.084-.39Zm2.949-3.886h-3.9l-.242.969a.379.379,0,0,0-.021.116.432.432,0,0,0-.011.116.356.356,0,0,0,.116.305.673.673,0,0,0,.411.095h1.517a.292.292,0,0,1,.232.074.3.3,0,0,1,.021.263.339.339,0,0,1-.137.211.436.436,0,0,1-.242.063h-1.506a2.047,2.047,0,0,0-.906.19,1.67,1.67,0,0,0-.674.632,3.747,3.747,0,0,0-.453,1.19c-.011.084-.032.179-.053.284s-.032.19-.042.284-.021.169-.021.232a1.592,1.592,0,0,0,.147.748.739.739,0,0,0,.411.369,1.656,1.656,0,0,0,.632.105h.463a2.847,2.847,0,0,0,.569-.042,1.207,1.207,0,0,0,.39-.137,1.07,1.07,0,0,0,.284-.253,3.781,3.781,0,0,0,.263-.4h.137l-.032.147a.7.7,0,0,0,0,.295.366.366,0,0,0,.158.221.706.706,0,0,0,.369.084h2.58l.053-.263a.711.711,0,0,1-.147-.021.234.234,0,0,1-.137-.084.222.222,0,0,1-.063-.169.394.394,0,0,1,.011-.116c.011-.032.011-.084.021-.137l.885-3.791c.011-.053.021-.105.032-.169s.011-.126.021-.19a.91.91,0,0,0,.011-.158,1.138,1.138,0,0,0-.147-.59.855.855,0,0,0-.411-.358,1.472,1.472,0,0,0-.59-.116Z" transform="translate(-174.016 -14.583)" fill="#2b2c6d"/>
    </g>
  </g>
</svg>
