<svg xmlns="http://www.w3.org/2000/svg" xmlns:xlink="http://www.w3.org/1999/xlink" width="35" height="15" viewBox="0 0 35 15">
  <defs>
    <clipPath id="clip-Artboard_4">
      <rect width="35" height="15"/>
    </clipPath>
  </defs>
  <g id="Artboard_4" data-name="Artboard – 4" clip-path="url(#clip-Artboard_4)">
    <g id="g4158" transform="translate(3 3)">
      <path id="polygon9" d="M32.669,24.657H30.383l1.429-8.847H34.1Z" transform="translate(-20.433 -15.651)" fill="#00579f"/>
      <path id="path11" d="M44.03,15.893A5.715,5.715,0,0,0,42,15.52c-2.261,0-3.832,1.2-3.86,2.923,0,1.27,1.139,1.977,2,2.4s1.183.712,1.183,1.1c0,.591-.712.865-1.372.865a4.582,4.582,0,0,1-2.168-.457l-.3-.143-.318,1.987a7.057,7.057,0,0,0,2.551.471c2.4,0,3.963-1.188,3.98-3.022,0-1.007-.6-1.779-1.922-2.409-.8-.405-1.286-.679-1.286-1.1s.411-.762,1.314-.762a3.92,3.92,0,0,1,1.709.339l.2.093.312-1.91Z" transform="translate(-23.505 -15.52)" fill="#00579f"/>
      <path id="path13" d="M52.332,21.515l.909-2.474s.191-.514.3-.849l.165.767s.433,2.119.547,2.557Zm2.82-5.71H53.384a1.128,1.128,0,0,0-1.193.734l-3.4,8.129h2.4s.394-1.1.476-1.331h2.94c.066.312.274,1.331.274,1.331H57Z" transform="translate(-28.763 -15.645)" fill="#00579f"/>
      <path id="path15" d="M22.22,15.81l-2.239,6.02L19.735,20.6a6.767,6.767,0,0,0-3.165-3.7l2.053,7.773h2.42l3.6-8.84Z" transform="translate(-14.183 -15.651)" fill="#00579f"/>
      <path id="path17" d="M15.927,15.8H12.243l-.033.175a7.675,7.675,0,0,1,5.555,4.632l-.8-4.062A.942.942,0,0,0,15.927,15.8Z" transform="translate(-12.21 -15.645)" fill="#faa61a"/>
    </g>
  </g>
</svg>
