<svg xmlns="http://www.w3.org/2000/svg" xmlns:xlink="http://www.w3.org/1999/xlink" width="35" height="15" viewBox="0 0 35 15">
  <defs>
    <clipPath id="clip-Artboard_3">
      <rect width="35" height="15"/>
    </clipPath>
  </defs>
  <g id="Artboard_3" data-name="Artboard – 3" clip-path="url(#clip-Artboard_3)">
    <g id="Group_5732" data-name="Group 5732" transform="translate(9.002 1)">
      <path id="Path_12403" data-name="Path 12403" d="M32.008,38.643v.045h0Zm.031-.026a.057.057,0,0,1,.038,0,.049.049,0,0,1,0,.034.037.037,0,0,1,0,.026.047.047,0,0,1-.028,0l.042.049H32.06l-.035-.037h0v.049H32V38.6Zm0,.18a.063.063,0,0,0,.038,0l.035-.022a.08.08,0,0,0,.021-.037.1.1,0,0,0,0-.09.091.091,0,0,0-.021-.034l-.035-.026H32l-.035.026a.091.091,0,0,0-.021.034.1.1,0,0,0,0,.09.08.08,0,0,0,.021.037L32,38.8a.07.07,0,0,0,.042,0m0-.259a.09.09,0,0,1,.1.03.137.137,0,0,1,.028.045.163.163,0,0,1,0,.056.135.135,0,0,1,0,.056.119.119,0,0,1-.072.079h-.053a.129.129,0,0,1-.053,0,.119.119,0,0,1-.072-.079.135.135,0,0,1,0-.056.164.164,0,0,1,0-.056.137.137,0,0,1,.028-.045.088.088,0,0,1,.045-.03.092.092,0,0,1,.053,0M19.508,38.02a.421.421,0,0,1,.42-.416.445.445,0,0,1-.011.885.386.386,0,0,1-.3-.136.463.463,0,0,1-.11-.333m1.087,0v-.731h-.282v.176a.493.493,0,0,0-.423-.213.772.772,0,0,0,0,1.538.493.493,0,0,0,.423-.213v.176H20.6Zm9.864,0a.421.421,0,0,1,.421-.416.445.445,0,0,1-.015.885.387.387,0,0,1-.3-.138.463.463,0,0,1-.106-.331m1.087,0V36.7h-.293v.75a.493.493,0,0,0-.423-.213.772.772,0,0,0,0,1.538.493.493,0,0,0,.423-.213v.176h.293Zm-7.326-.484a.36.36,0,0,1,.344.373h-.689a.36.36,0,0,1,.344-.373m0-.285a.627.627,0,0,0-.484.216.75.75,0,0,0-.184.532.759.759,0,0,0,.186.552.632.632,0,0,0,.5.217.77.77,0,0,0,.55-.207l-.144-.236a.605.605,0,0,1-.389.154.352.352,0,0,1-.273-.1.419.419,0,0,1-.129-.279h1v-.12a.741.741,0,0,0-.171-.526.62.62,0,0,0-.469-.224m3.525.75a.421.421,0,0,1,.421-.416.445.445,0,0,1-.015.888.387.387,0,0,1-.3-.137.463.463,0,0,1-.106-.331m1.087,0v-.7h-.292v.176a.493.493,0,0,0-.423-.213.772.772,0,0,0,0,1.538.493.493,0,0,0,.423-.213v.176h.292Zm-2.752,0a.787.787,0,0,0,.2.554.728.728,0,0,0,.992.039l-.137-.255a.564.564,0,0,1-.344.131.47.47,0,0,1,0-.938.564.564,0,0,1,.344.131l.135-.259a.734.734,0,0,0-.986.036.785.785,0,0,0-.213.541m3.762-.75a.394.394,0,0,0-.344.213v-.176h-.271v1.463h.292v-.781c0-.24.1-.373.285-.373a.458.458,0,0,1,.182.034l.089-.3a.585.585,0,0,0-.207-.037m-7.831.146a.937.937,0,0,0-.547-.154c-.344,0-.56.176-.56.469,0,.236.165.373.464.432l.137.022c.16.022.234.068.234.154s-.106.176-.306.176a.67.67,0,0,1-.444-.154l-.137.247a.914.914,0,0,0,.581.191c.385,0,.612-.2.612-.479s-.179-.373-.471-.435l-.137-.022c-.124-.019-.227-.045-.227-.143s.1-.172.254-.172a.844.844,0,0,1,.419.124Zm3.783-.154a.394.394,0,0,0-.344.213v-.176h-.31v1.463h.31v-.816c0-.24.1-.373.285-.373a.458.458,0,0,1,.182.034l.089-.3a.585.585,0,0,0-.207-.037m-2.49.037h-.5v-.454h-.3v.447h-.271v.274h.271v.668c0,.341.12.544.468.544a.666.666,0,0,0,.365-.086l-.086-.274a.491.491,0,0,1-.258.082c-.144,0-.193-.1-.193-.244v-.692h.479Zm-4.393,1.453v-.919a.576.576,0,0,0-.145-.42.479.479,0,0,0-.385-.16.507.507,0,0,0-.471.259.483.483,0,0,0-.444-.259.426.426,0,0,0-.392.218v-.18H16.81v1.463H17.1v-.815a.364.364,0,0,1,.092-.276.3.3,0,0,1,.253-.1c.193,0,.292.139.292.373v.814h.3v-.811a.365.365,0,0,1,.086-.266.3.3,0,0,1,.241-.106c.2,0,.3.139.3.373v.814Z" transform="translate(-15.539 -25.815)" fill="#231f20"/>
      <path id="Path_12405" data-name="Path 12405" d="M36.6,17.2H31.77V8.53H36.6Z" transform="translate(-25.579 -7.641)" fill="#ff5f00"/>
      <path id="Path_12406" data-name="Path 12406" d="M21.245,10.894a5.506,5.506,0,0,1,2.1-4.336,5.514,5.514,0,1,0,0,8.673,5.5,5.5,0,0,1-2.1-4.336" transform="translate(-14.43 -5.374)" fill="#eb001b"/>
      <path id="Path_12407" data-name="Path 12407" d="M47.128,10.885A5.514,5.514,0,0,1,38.2,15.221a5.522,5.522,0,0,0,0-8.673,5.514,5.514,0,0,1,8.928,4.336" transform="translate(-29.907 -5.365)" fill="#f79e1b"/>
    </g>
  </g>
</svg>
