<svg xmlns="http://www.w3.org/2000/svg" xmlns:xlink="http://www.w3.org/1999/xlink" width="18" height="23" viewBox="0 0 18 23">
  <defs>
    <clipPath id="clip-path">
      <rect id="Rectangle_18690" data-name="Rectangle 18690" width="18" height="23" transform="translate(-0.465 -0.467)" fill="#0d1112" stroke="#707070" stroke-width="1"/>
    </clipPath>
  </defs>
  <g id="Mask_Group_166" data-name="Mask Group 166" transform="translate(0.465 0.467)" clip-path="url(#clip-path)">
    <path id="_002-shopping-bag" data-name="002-shopping-bag" d="M17.677,21.463,16.4,7.266a.574.574,0,0,0-.515-.572H12.691V5.557c0-2.637-1.727-4.783-3.85-4.783S4.99,2.92,4.99,5.557V6.694h-3.2a.574.574,0,0,0-.515.572L0,21.463a.75.75,0,0,0,.129.5.48.48,0,0,0,.386.214H17.163a.48.48,0,0,0,.386-.214A.75.75,0,0,0,17.677,21.463ZM6.026,5.557c0-1.928,1.263-3.5,2.814-3.5s2.814,1.568,2.814,3.5V6.694H6.026ZM1.1,20.891,2.258,7.981H4.99v1.4A1.953,1.953,0,0,0,3.954,11.2a1.775,1.775,0,0,0,1.554,1.93A1.775,1.775,0,0,0,7.062,11.2,1.953,1.953,0,0,0,6.026,9.378v-1.4h5.629v1.4A1.953,1.953,0,0,0,10.619,11.2a1.775,1.775,0,0,0,1.554,1.93,1.775,1.775,0,0,0,1.554-1.93,1.953,1.953,0,0,0-1.036-1.819v-1.4h2.73l1.162,12.911ZM5.508,10.554a.592.592,0,0,1,.518.643.592.592,0,0,1-.518.643A.592.592,0,0,1,4.99,11.2.592.592,0,0,1,5.508,10.554Zm6.665,0a.592.592,0,0,1,.518.643.592.592,0,0,1-.518.643.592.592,0,0,1-.518-.643A.592.592,0,0,1,12.173,10.554Z" transform="translate(-0.121 -0.596)" fill="#0d1112"/>
  </g>
</svg>
